<?xml version="1.0" encoding="UTF-8" standalone="no"?>
<!DOCTYPE svg PUBLIC "-//W3C//DTD SVG 1.1//EN" "http://www.w3.org/Graphics/SVG/1.1/DTD/svg11.dtd">
<svg xmlns="http://www.w3.org/2000/svg" version="1.1" viewBox="0.00 0.00 1392.00 768.00">
<g stroke-width="2.00" fill="none" stroke-linecap="butt">
<path stroke="#898775" vector-effect="non-scaling-stroke" d="
  M 360.46 183.65
  L 360.48 224.75"
/>
<path stroke="#898775" vector-effect="non-scaling-stroke" d="
  M 369.79 276.27
  Q 371.16 277.87 368.76 279.50"
/>
<path stroke="#898775" vector-effect="non-scaling-stroke" d="
  M 360.94 294.79
  L 360.96 289.77"
/>
<path stroke="#898775" vector-effect="non-scaling-stroke" d="
  M 360.91 307.50
  L 360.55 314.19"
/>
<path stroke="#898775" vector-effect="non-scaling-stroke" d="
  M 360.68 332.80
  L 360.78 326.40"
/>
<path stroke="#898775" vector-effect="non-scaling-stroke" d="
  M 360.86 345.24
  L 361.08 351.47"
/>
<path stroke="#f2bf92" vector-effect="non-scaling-stroke" d="
  M 619.99 520.47
  L 610.79 520.60"
/>
<path stroke="#f2bf92" vector-effect="non-scaling-stroke" d="
  M 623.95 523.63
  Q 619.96 523.02 615.95 523.80"
/>
</g>
<g>
<path fill="#e57f25" d="
  M 360.46 183.65
  L 360.48 224.75
  L 351.83 219.32
  A 0.61 0.61 0.0 0 0 351.02 219.46
  L 305.09 278.08
  A 0.40 0.39 18.0 0 0 305.42 278.72
  L 369.79 276.27
  Q 371.16 277.87 368.76 279.50
  L 302.47 282.18
  A 1.35 1.35 0.0 0 0 301.48 282.69
  L 281.45 308.26
  A 0.75 0.75 0.0 0 0 281.70 309.39
  Q 288.69 312.95 291.70 314.28
  Q 292.12 314.46 292.35 314.98
  A 0.41 0.41 0.0 0 1 291.85 315.54
  L 280.07 311.53
  A 1.22 1.22 0.0 0 0 278.73 311.93
  L 262.07 333.20
  A 1.64 1.64 0.0 0 0 262.56 335.65
  Q 263.87 336.38 265.71 335.96
  Q 275.61 333.66 285.70 332.24
  A 0.28 0.27 -4.5 0 1 286.02 332.51
  L 286.03 332.84
  A 0.18 0.17 -6.2 0 1 285.89 333.01
  L 264.49 338.92
  A 1.74 1.73 88.4 0 0 263.26 340.23
  C 261.89 346.50 256.40 349.35 250.70 346.48
  Q 248.13 345.19 246.92 341.95
  Q 245.46 338.04 248.81 333.31
  A 1.66 1.65 47.8 0 0 248.89 331.53
  L 230.60 299.85
  A 0.42 0.41 56.4 0 0 229.99 299.72
  L 225.61 302.99
  A 1.32 1.32 0.0 0 1 224.21 303.09
  L 207.56 294.06
  A 0.86 0.83 -76.9 0 1 207.12 293.33
  L 206.78 273.88
  A 1.05 1.04 -15.7 0 1 207.30 272.96
  L 223.39 263.67
  A 0.89 0.88 44.1 0 1 224.26 263.66
  L 239.13 271.72
  A 1.45 1.43 -45.4 0 0 240.53 271.70
  L 341.42 213.45
  A 2.07 2.07 0.0 0 0 342.46 211.67
  L 342.59 194.16
  A 1.01 1.01 0.0 0 1 343.12 193.29
  Q 351.32 188.79 359.50 183.52
  Q 360.15 183.10 360.46 183.65
  Z
  M 358.38 188.51
  L 348.00 194.48
  A 0.14 0.14 0.0 0 0 347.94 194.67
  L 347.99 194.76
  A 4.22 4.20 60.1 0 0 353.74 196.33
  L 357.08 194.40
  A 4.22 4.20 60.1 0 0 358.62 188.65
  L 358.57 188.56
  A 0.14 0.14 0.0 0 0 358.38 188.51
  Z
  M 346.41 197.91
  L 346.55 209.61
  A 0.15 0.15 0.0 0 0 346.70 209.75
  L 346.79 209.75
  A 4.51 4.18 89.3 0 0 350.92 205.19
  L 350.88 202.21
  A 4.51 4.18 89.3 0 0 346.65 197.75
  L 346.56 197.76
  A 0.15 0.15 0.0 0 0 346.41 197.91
  Z
  M 348.37 213.37
  L 358.36 219.52
  A 0.03 0.03 0.0 0 0 358.41 219.51
  L 358.44 219.46
  A 4.48 4.47 31.6 0 0 356.96 213.30
  L 354.55 211.81
  A 4.48 4.47 31.6 0 0 348.39 213.27
  L 348.36 213.32
  A 0.03 0.03 0.0 0 0 348.37 213.37
  Z
  M 348.38 217.05
  L 345.38 215.31
  A 1.29 1.26 -45.7 0 0 344.08 215.34
  Q 331.87 222.95 319.24 230.15
  Q 305.59 237.92 294.68 244.38
  Q 286.66 249.13 246.19 272.33
  C 244.76 273.15 243.30 273.72 242.10 274.40
  A 1.05 1.05 0.0 0 0 241.56 275.35
  L 241.76 280.60
  A 0.59 0.59 0.0 0 0 242.37 281.17
  L 299.04 279.05
  A 2.35 2.35 0.0 0 0 300.76 278.20
  C 306.44 271.43 311.79 263.81 316.89 257.50
  Q 325.48 246.89 336.73 232.02
  C 340.67 226.82 344.80 222.39 348.50 217.63
  A 0.39 0.39 0.0 0 0 348.38 217.05
  Z
  M 222.35 268.15
  L 212.13 274.31
  A 0.03 0.03 0.0 0 0 212.12 274.35
  L 212.16 274.41
  A 4.18 3.92 -31.1 0 0 217.76 275.61
  L 220.88 273.73
  A 4.18 3.92 -31.1 0 0 222.43 268.22
  L 222.39 268.16
  A 0.03 0.03 0.0 0 0 222.35 268.15
  Z
  M 236.25 273.77
  L 225.91 268.21
  A 0.08 0.08 0.0 0 0 225.81 268.24
  A 4.06 3.94 28.3 0 0 227.51 273.63
  L 230.84 275.43
  A 4.06 3.94 28.3 0 0 236.28 273.88
  A 0.08 0.08 0.0 0 0 236.25 273.77
  Z
  M 238.28 288.93
  L 238.34 277.11
  A 0.15 0.15 0.0 0 0 238.19 276.96
  L 238.08 276.96
  A 4.31 4.02 -89.7 0 0 234.04 281.25
  L 234.02 284.75
  A 4.31 4.02 -89.7 0 0 238.02 289.08
  L 238.13 289.08
  A 0.15 0.15 0.0 0 0 238.28 288.93
  Z
  M 210.37 277.32
  L 210.39 289.86
  A 0.15 0.15 0.0 0 0 210.54 290.01
  L 210.58 290.01
  A 4.21 3.95 89.9 0 0 214.52 285.80
  L 214.52 281.38
  A 4.21 3.95 89.9 0 0 210.56 277.17
  L 210.52 277.17
  A 0.15 0.15 0.0 0 0 210.37 277.32
  Z
  M 296.76 283.37
  A 0.68 0.68 0.0 0 0 296.20 282.27
  L 242.45 284.28
  A 0.68 0.68 0.0 0 0 241.79 284.99
  L 241.96 289.36
  A 0.68 0.68 0.0 0 0 242.34 289.95
  L 277.48 307.11
  A 0.68 0.68 0.0 0 0 278.31 306.92
  L 296.76 283.37
  Z
  M 233.83 289.79
  A 1.66 1.65 -56.7 0 0 232.05 290.16
  L 230.26 291.96
  A 1.57 1.56 22.9 0 0 231.35 294.63
  Q 232.39 294.71 236.56 291.95
  A 0.64 0.63 39.0 0 0 236.44 290.83
  L 233.83 289.79
  Z
  M 212.38 292.59
  L 222.16 298.37
  A 0.14 0.14 0.0 0 0 222.35 298.32
  L 222.39 298.25
  A 4.22 3.96 30.6 0 0 220.77 292.70
  L 218.02 291.07
  A 4.22 3.96 30.6 0 0 212.37 292.33
  L 212.33 292.40
  A 0.14 0.14 0.0 0 0 212.38 292.59
  Z
  M 228.64 293.11
  L 227.01 293.09
  A 1.31 1.31 0.0 0 0 225.69 294.39
  L 225.67 297.63
  A 0.69 0.69 0.0 0 0 226.75 298.20
  Q 229.19 296.53 229.66 294.38
  A 1.05 1.05 0.0 0 0 228.64 293.11
  Z
  M 275.78 309.73
  L 241.76 293.11
  A 0.88 0.86 41.0 0 0 240.90 293.16
  L 233.85 297.65
  A 0.80 0.79 -31.1 0 0 233.58 298.72
  L 251.90 330.46
  A 1.34 1.32 66.5 0 0 253.43 331.07
  Q 255.98 330.33 258.43 331.83
  A 0.52 0.52 0.0 0 0 259.12 331.71
  L 275.90 310.29
  A 0.37 0.37 0.0 0 0 275.78 309.73
  Z"
/>
<path fill="#2c8fc4" d="
  M 368.76 279.50
  Q 371.16 277.87 369.79 276.27
  L 410.96 274.82
  A 0.50 0.50 0.0 0 0 411.33 274.00
  Q 404.97 266.31 402.37 262.63
  Q 392.01 247.94 380.89 233.81
  C 377.51 229.53 373.89 224.35 370.48 219.64
  A 0.78 0.77 56.3 0 0 369.46 219.43
  L 360.48 224.75
  L 360.46 183.65
  Q 361.70 183.73 362.82 184.44
  Q 370.34 189.20 377.68 193.09
  A 1.27 1.25 14.3 0 1 378.36 194.22
  L 378.24 211.00
  A 0.99 0.98 15.2 0 0 378.75 211.88
  C 387.08 216.53 396.25 220.50 405.62 225.52
  C 415.47 230.79 427.45 236.12 437.42 241.26
  Q 457.06 251.38 476.04 260.96
  Q 477.57 261.73 479.60 262.15
  A 1.12 1.11 32.0 0 0 480.52 261.94
  Q 481.61 261.12 494.34 253.56
  Q 496.05 252.54 497.65 253.56
  Q 505.73 258.73 512.91 262.57
  A 1.37 1.36 13.6 0 1 513.64 263.76
  L 513.96 281.94
  A 0.81 0.81 0.0 0 1 513.55 282.66
  L 497.44 291.96
  A 2.07 2.07 0.0 0 1 495.42 291.99
  L 491.40 289.81
  A 0.93 0.93 0.0 0 0 490.07 290.35
  Q 487.56 298.27 484.35 304.87
  Q 478.14 317.64 470.58 335.00
  A 1.08 1.07 40.3 0 0 470.67 336.00
  Q 471.20 336.83 471.82 337.77
  C 478.56 348.02 462.09 356.61 457.32 345.84
  Q 455.50 341.73 457.70 337.69
  A 1.72 1.71 -49.2 0 0 457.57 335.84
  L 439.71 311.89
  A 1.31 1.30 56.4 0 0 438.01 311.54
  L 432.55 314.70
  A 0.56 0.56 0.0 0 1 431.82 314.55
  L 431.55 314.19
  A 0.24 0.23 -36.9 0 1 431.60 313.87
  L 436.71 309.81
  A 1.01 1.01 0.0 0 0 436.89 308.42
  L 414.43 278.32
  A 1.32 1.31 70.6 0 0 413.34 277.79
  L 368.76 279.50
  Z
  M 372.71 194.12
  L 362.27 188.35
  A 0.13 0.13 0.0 0 0 362.09 188.41
  L 362.08 188.43
  A 4.26 4.25 -61.1 0 0 363.74 194.22
  L 366.96 195.99
  A 4.26 4.25 -61.1 0 0 372.74 194.32
  L 372.76 194.29
  A 0.13 0.13 0.0 0 0 372.71 194.12
  Z
  M 374.33 208.79
  L 374.33 198.11
  A 0.25 0.25 0.0 0 0 374.08 197.86
  L 373.95 197.86
  A 3.29 3.28 90.0 0 0 370.67 201.15
  L 370.67 205.75
  A 3.29 3.28 -90.0 0 0 373.95 209.04
  L 374.08 209.04
  A 0.25 0.25 0.0 0 0 374.33 208.79
  Z
  M 362.56 219.87
  L 373.24 213.30
  A 0.12 0.12 0.0 0 0 373.28 213.14
  L 373.27 213.11
  A 4.38 3.95 -31.6 0 0 367.47 212.04
  L 364.04 214.15
  A 4.38 3.95 -31.6 0 0 362.38 219.81
  L 362.40 219.83
  A 0.12 0.12 0.0 0 0 362.56 219.87
  Z
  M 478.42 271.04
  L 478.24 266.12
  A 1.22 1.22 0.0 0 0 477.49 265.04
  Q 473.35 263.31 469.48 261.25
  Q 453.38 252.66 435.64 244.59
  C 430.80 242.39 423.85 238.08 418.47 235.49
  Q 394.24 223.79 377.72 214.73
  A 1.24 1.23 -47.5 0 0 376.45 214.79
  L 373.37 216.83
  A 0.50 0.50 0.0 0 0 373.24 217.54
  L 415.02 273.55
  A 2.07 2.05 70.3 0 0 416.74 274.37
  L 477.44 272.10
  A 1.02 1.02 0.0 0 0 478.42 271.04
  Z
  M 508.39 264.08
  L 497.69 257.65
  A 0.13 0.13 0.0 0 0 497.52 257.69
  L 497.48 257.74
  A 4.94 4.17 31.0 0 0 499.57 263.86
  L 502.02 265.34
  A 4.94 4.17 31.0 0 0 508.41 264.31
  L 508.44 264.25
  A 0.13 0.13 0.0 0 0 508.39 264.08
  Z
  M 494.31 257.83
  L 483.51 264.25
  A 0.13 0.13 0.0 0 0 483.46 264.42
  L 483.49 264.47
  A 4.60 4.10 -30.7 0 0 489.54 265.64
  L 492.65 263.80
  A 4.60 4.10 -30.7 0 0 494.51 257.92
  L 494.49 257.88
  A 0.13 0.13 0.0 0 0 494.31 257.83
  Z
  M 482.06 267.63
  L 482.10 278.97
  A 0.13 0.13 0.0 0 0 482.23 279.10
  L 482.28 279.10
  A 4.11 3.78 89.8 0 0 486.05 274.97
  L 486.03 271.59
  A 4.11 3.78 89.8 0 0 482.24 267.50
  L 482.19 267.50
  A 0.13 0.13 0.0 0 0 482.06 267.63
  Z
  M 510.24 277.57
  L 510.10 267.83
  A 0.45 0.45 0.0 0 0 509.65 267.39
  L 509.29 267.39
  A 3.41 3.01 -0.8 0 0 505.92 270.45
  L 505.98 275.07
  A 3.41 3.01 -0.8 0 0 509.43 278.03
  L 509.79 278.03
  A 0.45 0.45 0.0 0 0 510.24 277.57
  Z
  M 440.00 306.93
  A 0.47 0.47 0.0 0 0 440.64 307.05
  L 478.42 282.06
  A 0.47 0.47 0.0 0 0 478.63 281.67
  L 478.63 275.61
  A 0.47 0.47 0.0 0 0 478.14 275.14
  L 418.86 277.37
  A 0.47 0.47 0.0 0 0 418.51 278.12
  L 440.00 306.93
  Z
  M 498.79 287.57
  L 507.80 281.92
  A 0.28 0.28 0.0 0 0 507.89 281.53
  L 507.79 281.37
  A 3.13 2.97 57.9 0 0 503.61 280.30
  L 499.16 283.09
  A 3.13 2.97 57.9 0 0 498.30 287.32
  L 498.40 287.48
  A 0.28 0.28 0.0 0 0 498.79 287.57
  Z
  M 484.09 282.67
  L 494.08 287.78
  A 0.21 0.21 0.0 0 0 494.36 287.69
  L 494.40 287.61
  A 3.80 3.63 -62.9 0 0 492.90 282.57
  L 489.00 280.58
  A 3.80 3.63 -62.9 0 0 484.04 282.31
  L 484.00 282.39
  A 0.21 0.21 0.0 0 0 484.09 282.67
  Z
  M 461.97 334.19
  L 466.34 333.99
  A 1.39 1.38 -79.2 0 0 467.54 333.17
  L 487.48 288.89
  A 0.92 0.91 26.6 0 0 487.08 287.71
  L 481.66 284.77
  A 0.96 0.95 -47.2 0 0 480.70 284.81
  L 442.88 308.89
  A 1.03 1.02 54.0 0 0 442.65 310.41
  Q 450.35 319.68 457.74 330.27
  Q 460.01 333.52 461.27 334.06
  A 1.73 1.61 -32.3 0 0 461.97 334.19
  Z"
/>
<path fill="#e57f25" d="
  M 744.10 261.22
  Q 743.96 261.29 743.75 261.29
  Q 694.35 262.48 623.94 264.30
  C 595.87 265.03 570.00 266.23 544.19 267.42
  A 0.12 0.12 0.0 0 0 544.19 267.66
  L 640.91 274.58
  A 0.13 0.13 0.0 0 1 641.03 274.71
  L 641.03 274.72
  A 0.19 0.19 0.0 0 1 640.84 274.90
  C 631.29 274.82 622.23 274.50 612.73 274.54
  Q 559.17 274.79 521.36 275.33
  A 0.46 0.45 89.4 0 1 520.90 274.87
  L 520.90 261.27
  A 1.10 1.06 23.3 0 0 520.58 260.51
  L 517.74 257.68
  A 0.58 0.58 0.0 0 1 518.16 256.69
  C 558.87 257.59 617.74 257.61 664.92 258.86
  Q 682.51 259.33 729.76 260.20
  Q 741.88 260.43 744.08 261.00
  A 0.12 0.12 0.0 0 1 744.10 261.22
  Z"
/>
<path fill="#2c8fc4" d="
  M 1082.27 258.18
  L 1075.44 265.57
  A 0.14 0.14 0.0 0 1 1075.34 265.62
  L 922.34 261.39
  A 0.14 0.14 0.0 0 1 922.20 261.25
  L 922.22 260.86
  A 0.14 0.14 0.0 0 1 922.35 260.73
  L 1082.16 257.95
  A 0.14 0.14 0.0 0 1 1082.27 258.18
  Z"
/>
<path fill="#2c8fc4" d="
  M 859.87 283.62
  C 884.73 282.15 905.69 281.80 939.48 280.45
  Q 966.91 279.35 1048.00 276.90
  A 0.64 0.63 19.7 0 1 1048.50 277.95
  L 1043.06 284.17
  A 3.16 3.15 20.7 0 1 1040.66 285.25
  L 859.92 283.92
  A 0.20 0.19 78.7 0 1 859.74 283.79
  L 859.73 283.77
  A 0.15 0.15 0.0 0 1 859.87 283.62
  Z"
/>
<path fill="#e57f25" d="
  M 844.31 284.62
  A 0.34 0.32 -20.9 0 1 844.19 284.87
  L 838.75 289.53
  A 1.22 1.21 -65.6 0 1 837.99 289.82
  L 507.26 295.58
  A 0.40 0.39 -60.2 0 1 507.06 294.84
  Q 513.25 291.38 518.64 287.40
  Q 520.38 286.12 520.60 284.14
  A 0.57 0.56 -86.6 0 1 521.16 283.64
  Q 558.37 283.76 596.75 283.87
  Q 720.85 284.23 843.75 284.13
  Q 844.32 284.13 844.31 284.62
  Z"
/>
<path fill="#2c8fc4" d="
  M 884.96 294.91
  L 884.96 294.87
  A 0.18 0.18 0.0 0 1 885.14 294.68
  C 911.94 293.80 934.85 293.61 973.41 292.91
  Q 1005.28 292.34 1014.58 292.31
  C 1033.76 292.26 1049.75 291.58 1069.48 291.30
  C 1139.33 290.29 1218.41 288.67 1265.75 288.54
  Q 1281.62 288.49 1296.60 296.01
  C 1317.83 306.67 1330.05 329.96 1330.97 353.47
  Q 1331.50 367.19 1327.47 380.92
  Q 1325.88 386.32 1323.02 391.07
  A 0.30 0.30 0.0 0 1 1322.49 390.81
  C 1330.95 369.18 1329.82 343.68 1316.68 324.65
  C 1308.32 312.53 1294.44 302.37 1279.47 299.51
  Q 1275.56 298.77 1265.48 298.67
  Q 1170.70 297.80 1033.50 296.31
  Q 986.82 295.81 885.20 295.15
  A 0.24 0.24 0.0 0 1 884.96 294.91
  Z"
/>
<path fill="#2c8fc4" d="
  M 360.94 294.79
  L 360.96 289.77
  Q 362.57 289.31 363.51 289.34
  Q 394.82 290.27 416.58 310.51
  Q 424.41 317.78 429.21 325.68
  C 436.90 338.30 441.51 355.95 440.46 370.72
  Q 439.42 385.23 432.98 399.23
  Q 427.19 411.84 413.99 423.72
  A 2.18 2.17 40.6 0 1 411.35 423.92
  L 411.30 423.89
  A 1.45 1.45 0.0 0 1 411.02 421.70
  C 415.44 416.85 418.48 414.03 421.79 409.32
  C 441.78 380.92 438.37 342.96 414.62 317.64
  C 407.71 310.28 397.28 303.02 387.47 299.42
  Q 379.27 296.40 369.73 295.48
  Q 365.36 295.05 360.94 294.79
  Z"
/>
<path fill="#e57f25" d="
  M 360.96 289.77
  L 360.94 294.79
  Q 358.15 295.06 355.30 295.23
  C 346.27 295.76 337.38 298.53 329.37 302.62
  Q 304.19 315.46 294.03 341.87
  C 284.51 366.61 288.83 397.19 307.79 416.53
  A 2.51 2.50 -56.3 0 1 308.32 419.20
  L 307.90 420.27
  A 1.33 1.32 -58.0 0 1 305.78 420.76
  C 291.05 407.31 282.57 387.35 282.29 367.36
  C 281.82 333.79 304.19 303.80 336.02 293.73
  Q 346.98 290.26 359.74 289.38
  Q 360.20 289.35 360.96 289.77
  Z"
/>
<path fill="#e57f25" d="
  M 531.89 455.15
  C 533.83 455.05 535.95 455.32 537.71 455.32
  Q 914.11 455.29 1290.50 455.29
  C 1296.36 455.29 1301.41 452.99 1304.18 447.74
  C 1307.37 441.71 1305.37 436.28 1302.96 430.04
  Q 1296.61 413.54 1291.57 399.04
  A 0.75 0.74 -35.6 0 1 1291.69 398.34
  Q 1293.94 395.46 1295.82 393.02
  C 1304.85 381.22 1308.01 366.01 1305.38 351.65
  C 1301.74 331.73 1285.61 318.29 1265.50 318.28
  Q 891.64 318.10 490.75 318.37
  Q 489.12 318.37 486.97 318.57
  A 0.56 0.56 0.0 0 1 486.41 317.79
  L 493.49 302.06
  A 2.22 2.20 -77.7 0 1 495.50 300.76
  L 645.45 300.76
  A 0.31 0.31 0.0 0 1 645.68 301.28
  L 638.79 308.76
  A 0.37 0.37 0.0 0 0 639.11 309.38
  Q 640.72 309.18 641.75 309.18
  Q 829.30 309.21 1256.21 309.18
  Q 1273.32 309.18 1279.11 310.69
  C 1299.10 315.89 1312.14 333.63 1314.76 353.87
  Q 1317.98 378.85 1301.83 399.47
  A 2.25 2.24 -36.9 0 0 1301.51 401.69
  Q 1305.36 411.50 1309.87 422.82
  Q 1314.78 435.14 1314.78 440.85
  Q 1314.79 451.23 1305.81 459.32
  C 1300.78 463.86 1294.60 464.43 1287.29 464.43
  Q 954.68 464.49 628.90 464.46
  A 1.52 1.50 -68.5 0 0 627.79 464.95
  L 621.11 472.20
  A 2.11 2.09 21.2 0 1 619.57 472.87
  L 568.04 472.87
  A 2.12 2.05 -28.2 0 1 566.94 472.56
  L 559.51 467.92
  A 1.96 1.95 -32.3 0 0 558.25 467.64
  Q 555.08 468.03 552.14 469.12
  Q 547.71 470.78 546.47 470.57
  C 542.44 469.90 540.17 468.88 537.70 465.10
  Q 536.19 462.79 531.60 455.73
  A 0.38 0.37 71.9 0 1 531.89 455.15
  Z"
/>
<path fill="#e57f25" d="
  M 360.91 307.50
  L 360.55 314.19
  Q 346.92 314.95 335.61 321.09
  C 321.05 329.00 310.68 344.93 308.58 361.52
  Q 305.96 382.29 317.70 400.49
  A 2.41 2.41 0.0 0 1 317.34 403.55
  L 317.28 403.60
  A 1.79 1.78 49.4 0 1 314.64 403.39
  Q 304.96 390.78 302.78 375.39
  C 299.91 355.08 306.87 335.71 322.29 322.15
  Q 338.09 308.25 360.91 307.50
  Z"
/>
<path fill="#2c8fc4" d="
  M 360.55 314.19
  L 360.91 307.50
  Q 366.41 307.41 371.49 308.28
  Q 395.19 312.30 409.81 331.46
  Q 416.06 339.64 418.65 348.29
  Q 428.64 381.56 405.30 406.54
  Q 404.82 407.05 403.32 408.16
  A 0.77 0.77 0.0 0 1 402.14 407.26
  Q 402.50 406.34 405.15 402.91
  Q 406.71 400.89 407.84 398.66
  C 415.24 384.17 418.58 366.32 412.80 350.75
  Q 403.61 326.01 378.03 316.75
  Q 369.79 313.77 360.55 314.19
  Z"
/>
<path fill="#2c8fc4" d="
  M 536.21 359.79
  Q 539.19 359.11 540.72 360.59
  C 542.60 362.40 541.19 365.27 539.11 366.19
  A 1.42 1.42 0.0 0 0 538.31 367.14
  L 530.80 397.11
  A 0.79 0.79 0.0 0 0 531.10 397.93
  C 534.35 400.32 531.43 405.33 527.49 403.35
  C 526.46 402.83 526.53 402.11 526.03 401.36
  A 1.27 1.24 -11.5 0 0 525.18 400.81
  Q 516.07 399.32 494.75 394.83
  Q 493.97 394.67 493.87 394.42
  Q 493.78 394.17 493.60 394.09
  A 0.68 0.67 31.0 0 0 492.80 394.28
  Q 490.59 397.04 487.56 395.62
  A 1.62 1.60 89.3 0 1 486.80 394.87
  Q 485.24 391.62 487.59 389.75
  A 1.06 1.06 0.0 0 0 487.97 388.77
  Q 486.49 379.21 483.86 371.14
  A 2.28 2.27 39.1 0 1 483.76 370.20
  Q 483.95 368.28 486.01 367.61
  A 0.97 0.96 -29.6 0 1 487.04 367.89
  C 488.99 370.10 488.34 371.45 487.71 374.43
  A 2.34 2.25 47.5 0 0 487.69 375.28
  L 489.84 388.02
  A 1.85 1.81 -74.9 0 0 490.45 389.11
  Q 492.17 390.57 493.12 392.25
  A 1.09 1.07 80.0 0 0 493.86 392.78
  Q 512.51 396.36 522.96 398.59
  C 526.11 399.27 526.95 398.75 528.97 396.90
  A 1.25 1.24 75.8 0 0 529.35 396.26
  L 536.86 366.29
  A 0.38 0.36 30.0 0 0 536.76 365.94
  Q 535.71 364.90 535.18 363.79
  A 3.09 2.97 -60.6 0 1 534.90 362.71
  Q 534.83 361.72 535.47 360.68
  A 0.54 0.54 0.0 0 0 535.20 359.89
  C 534.83 359.74 534.21 359.33 533.93 359.00
  Q 526.86 350.34 520.75 341.24
  A 0.85 0.83 -24.1 0 0 519.83 340.90
  C 513.80 342.50 513.53 333.54 519.58 334.52
  A 0.73 0.72 -21.1 0 1 519.92 334.67
  L 521.53 335.92
  A 0.40 0.40 0.0 0 0 522.17 335.70
  L 522.30 335.16
  A 1.40 1.35 -11.6 0 1 522.84 334.37
  Q 525.87 332.18 535.10 325.60
  Q 535.74 325.15 536.06 323.80
  C 536.58 321.60 538.01 320.25 540.27 320.91
  C 544.63 322.18 541.70 328.07 538.28 326.81
  Q 537.70 326.60 537.34 326.63
  A 1.60 1.59 -65.7 0 0 536.66 326.89
  L 522.17 336.95
  A 0.77 0.76 -10.8 0 0 521.88 337.37
  L 521.34 339.52
  A 1.04 1.04 0.0 0 0 521.65 340.54
  Q 523.48 342.23 535.44 357.66
  Q 536.23 358.67 535.93 359.46
  A 0.25 0.24 -85.9 0 0 536.21 359.79
  Z"
/>
<path fill="#2c8fc4" d="
  M 360.68 332.80
  L 360.78 326.40
  Q 372.62 325.81 383.00 332.54
  A 2.78 2.78 0.0 0 1 383.94 336.18
  L 383.89 336.27
  A 2.73 2.72 -63.6 0 1 380.36 337.46
  Q 370.58 333.00 360.68 332.80
  Z"
/>
<path fill="#e57f25" d="
  M 360.78 326.40
  L 360.68 332.80
  Q 351.57 333.65 343.64 337.59
  C 340.74 339.04 338.25 335.15 340.48 332.67
  C 344.24 328.47 355.36 326.57 360.78 326.40
  Z"
/>
<path fill="#e57f25" d="
  M 789.99 365.04
  L 769.87 365.23
  A 0.54 0.54 0.0 0 1 769.34 364.62
  Q 769.35 364.56 769.16 359.39
  C 768.91 352.55 762.97 350.41 757.18 351.92
  C 750.64 353.61 750.93 358.64 750.98 364.34
  C 751.03 369.24 753.62 372.79 758.42 373.56
  C 767.08 374.96 772.92 375.71 779.69 379.55
  C 791.61 386.31 791.65 399.36 791.59 411.46
  Q 791.55 417.92 790.58 421.85
  C 787.01 436.43 775.15 442.35 761.03 442.36
  C 751.03 442.36 741.09 440.15 734.99 431.88
  C 729.42 424.32 729.13 415.01 729.24 405.56
  A 0.66 0.66 0.0 0 1 729.89 404.90
  L 750.13 404.55
  A 0.82 0.82 0.0 0 1 750.96 405.36
  C 751.13 414.96 750.14 421.99 762.30 421.62
  C 771.37 421.35 770.22 411.55 769.78 404.95
  C 769.43 399.55 766.85 397.30 761.79 395.95
  Q 758.64 395.10 752.43 393.91
  C 742.05 391.91 733.79 386.55 731.07 375.70
  C 728.84 366.80 728.64 352.95 733.24 344.91
  C 739.61 333.77 751.30 330.08 763.63 330.86
  Q 773.10 331.46 779.89 336.28
  C 789.51 343.11 790.92 352.97 790.67 364.36
  A 0.70 0.69 -89.6 0 1 789.99 365.04
  Z"
/>
<path fill="#2c8fc4" d="
  M 1120.92 395.83
  A 0.55 0.54 0.5 0 1 1120.38 395.29
  L 1120.53 375.75
  A 0.63 0.62 -0.0 0 1 1121.16 375.13
  L 1151.13 375.35
  A 0.70 0.70 0.0 0 1 1151.82 376.04
  Q 1151.91 395.06 1151.79 414.49
  Q 1151.77 418.55 1150.05 424.34
  C 1146.73 435.53 1136.77 440.95 1125.47 442.04
  C 1115.89 442.96 1106.06 441.23 1098.45 435.21
  C 1092.53 430.52 1089.72 420.39 1089.71 413.25
  Q 1089.64 373.95 1089.71 363.50
  Q 1089.73 360.72 1090.08 356.50
  C 1091.08 344.35 1099.18 335.13 1110.61 332.10
  C 1118.49 330.01 1129.43 330.45 1136.73 334.00
  C 1149.05 339.99 1152.02 351.34 1151.48 364.43
  A 0.62 0.62 0.0 0 1 1150.86 365.03
  L 1131.41 365.03
  A 0.58 0.57 87.2 0 1 1130.84 364.51
  Q 1130.77 363.90 1130.65 360.72
  Q 1130.32 351.86 1120.97 351.81
  Q 1110.78 351.76 1110.83 362.06
  Q 1111.07 402.58 1110.91 411.76
  Q 1110.76 421.11 1119.98 421.53
  C 1125.24 421.77 1130.34 420.02 1130.36 413.76
  Q 1130.39 402.33 1130.61 396.41
  A 0.50 0.49 -89.4 0 0 1130.12 395.90
  L 1120.92 395.83
  Z"
/>
<path fill="#e57f25" d="
  M 187.92 337.19
  C 186.54 337.47 185.82 338.16 184.35 337.73
  Q 181.05 336.76 182.11 333.11
  A 2.52 2.39 6.5 0 1 184.41 331.38
  Q 187.74 331.23 188.60 334.73
  A 0.90 0.87 -86.0 0 0 189.10 335.32
  L 197.00 338.88
  A 0.70 0.68 34.6 0 0 197.76 338.75
  Q 200.78 335.78 203.71 339.03
  C 205.59 341.10 204.75 342.25 204.01 344.29
  A 1.94 1.89 -44.3 0 0 203.98 345.51
  L 208.43 359.98
  A 1.46 1.44 -88.4 0 0 209.30 360.91
  Q 212.42 362.08 212.90 364.76
  A 1.67 1.65 -80.9 0 0 213.74 365.93
  L 255.98 388.82
  A 0.67 0.67 0.0 0 1 255.87 390.05
  L 255.39 390.21
  A 2.23 2.20 49.3 0 1 253.68 390.07
  Q 226.41 375.61 212.55 368.27
  Q 210.65 367.27 208.50 368.54
  A 1.78 1.75 89.6 0 0 207.87 369.19
  L 193.63 394.95
  A 1.87 1.86 -76.6 0 1 192.07 395.91
  L 191.79 395.91
  A 0.84 0.84 0.0 0 1 191.05 394.66
  L 206.14 367.38
  A 2.19 2.18 47.8 0 0 206.23 365.45
  Q 205.63 364.08 206.63 362.31
  A 1.64 1.63 47.9 0 0 206.70 360.83
  Q 203.95 354.64 201.98 346.02
  A 1.05 1.04 87.8 0 0 201.13 345.22
  Q 198.43 344.79 197.72 342.21
  A 1.99 1.98 4.9 0 0 196.62 340.91
  L 188.50 337.26
  A 0.95 0.93 51.4 0 0 187.92 337.19
  Z"
/>
<path fill="#e57f25" d="
  M 592.86 385.00
  A 0.14 0.14 0.0 0 0 592.63 385.10
  L 592.63 440.32
  A 0.37 0.36 0.0 0 1 592.26 440.68
  L 571.08 440.68
  A 0.31 0.30 -0.0 0 1 570.77 440.38
  L 570.77 332.99
  A 0.64 0.64 0.0 0 1 571.41 332.35
  L 592.99 332.35
  A 0.84 0.84 0.0 0 1 593.77 332.88
  L 615.05 386.41
  A 0.26 0.26 0.0 0 0 615.53 386.41
  L 636.84 332.74
  A 0.64 0.63 10.9 0 1 637.43 332.35
  L 659.27 332.35
  A 0.52 0.51 -0.0 0 1 659.79 332.86
  L 659.79 439.99
  A 0.67 0.67 0.0 0 1 659.12 440.66
  L 638.66 440.66
  A 0.47 0.47 0.0 0 1 638.19 440.19
  L 638.19 384.64
  A 0.16 0.16 0.0 0 0 637.89 384.58
  L 624.24 418.96
  A 0.77 0.76 10.7 0 1 623.53 419.44
  L 607.64 419.44
  A 1.37 1.36 -11.3 0 1 606.38 418.61
  Q 598.51 400.02 593.18 385.56
  Q 593.03 385.15 592.86 385.00
  Z"
/>
<path fill="#e57f25" d="
  M 669.29 332.25
  L 722.66 332.28
  A 0.48 0.48 0.0 0 1 723.14 332.76
  L 723.27 352.53
  A 0.76 0.75 -89.6 0 1 722.50 353.29
  L 691.06 353.16
  A 0.42 0.42 0.0 0 0 690.64 353.58
  L 690.56 374.35
  A 0.45 0.45 0.0 0 0 691.01 374.80
  L 716.17 374.59
  A 0.54 0.53 89.5 0 1 716.71 375.13
  L 716.73 394.83
  A 0.75 0.74 -89.6 0 1 715.98 395.58
  L 691.29 395.43
  A 0.65 0.64 -90.0 0 0 690.65 396.09
  L 690.63 419.63
  A 0.60 0.60 0.0 0 0 691.23 420.23
  L 723.49 420.17
  A 0.49 0.49 0.0 0 1 723.99 420.66
  L 723.90 440.17
  A 0.54 0.53 -89.4 0 1 723.37 440.70
  L 669.28 440.71
  A 0.53 0.53 0.0 0 1 668.75 440.18
  L 668.79 332.75
  A 0.50 0.50 0.0 0 1 669.29 332.25
  Z"
/>
<path fill="#e57f25" d="
  M 830.31 374.72
  Q 835.68 374.72 839.22 374.63
  A 0.41 0.41 0.0 0 0 839.62 374.22
  L 839.62 332.68
  A 0.35 0.35 0.0 0 1 839.97 332.33
  L 860.71 332.33
  A 0.61 0.61 0.0 0 1 861.32 332.94
  L 861.32 440.07
  A 0.61 0.61 0.0 0 1 860.71 440.68
  L 839.96 440.68
  A 0.34 0.34 0.0 0 1 839.62 440.34
  L 839.62 395.90
  A 0.36 0.35 0.3 0 0 839.26 395.55
  Q 837.78 395.55 830.31 395.55
  Q 822.84 395.54 821.36 395.54
  A 0.36 0.35 -0.3 0 0 821.00 395.90
  L 820.99 440.34
  A 0.34 0.34 0.0 0 1 820.65 440.68
  L 799.90 440.67
  A 0.61 0.61 0.0 0 1 799.29 440.06
  L 799.31 332.93
  A 0.61 0.61 0.0 0 1 799.92 332.32
  L 820.66 332.33
  A 0.35 0.35 0.0 0 1 821.01 332.68
  L 821.00 374.22
  A 0.41 0.41 0.0 0 0 821.41 374.63
  Q 824.94 374.72 830.31 374.72
  Z"
/>
<path fill="#2c8fc4" d="
  M 974.39 332.37
  Q 978.00 332.37 989.89 332.36
  A 0.50 0.49 84.4 0 1 990.37 332.76
  L 1010.02 440.03
  A 0.51 0.51 0.0 0 1 1009.52 440.63
  L 989.06 440.63
  A 0.82 0.82 0.0 0 1 988.25 439.94
  L 984.27 415.75
  A 0.69 0.69 0.0 0 0 983.59 415.18
  Q 974.74 415.15 974.34 415.15
  Q 973.94 415.15 965.09 415.17
  A 0.69 0.69 0.0 0 0 964.41 415.74
  L 960.41 439.92
  A 0.82 0.82 0.0 0 1 959.60 440.61
  L 939.14 440.59
  A 0.51 0.51 0.0 0 1 938.64 439.99
  L 958.41 332.74
  A 0.50 0.49 -84.4 0 1 958.89 332.34
  Q 970.78 332.36 974.39 332.37
  Z
  M 974.34 394.30
  Q 979.95 394.30 980.35 394.25
  A 0.65 0.65 0.0 0 0 980.91 393.50
  L 974.66 355.53
  A 0.12 0.12 0.0 0 0 974.61 355.45
  Q 974.42 355.35 974.37 355.35
  Q 974.32 355.35 974.14 355.45
  A 0.12 0.12 0.0 0 0 974.09 355.53
  L 967.77 393.49
  A 0.65 0.65 0.0 0 0 968.33 394.24
  Q 968.73 394.29 974.34 394.30
  Z"
/>
<path fill="#2c8fc4" d="
  M 1036.87 384.39
  L 1036.87 440.12
  A 0.54 0.54 0.0 0 1 1036.33 440.66
  L 1016.26 440.66
  A 0.60 0.60 0.0 0 1 1015.66 440.06
  L 1015.66 332.83
  A 0.48 0.48 0.0 0 1 1016.14 332.35
  L 1035.44 332.35
  A 0.50 0.50 0.0 0 1 1035.90 332.65
  Q 1048.50 361.84 1058.16 385.08
  Q 1058.83 386.67 1059.40 387.46
  A 0.16 0.15 27.0 0 0 1059.68 387.37
  L 1059.68 332.74
  A 0.35 0.35 0.0 0 1 1060.03 332.39
  L 1080.65 332.39
  A 0.24 0.24 0.0 0 1 1080.89 332.63
  L 1080.89 440.00
  A 0.62 0.62 0.0 0 1 1080.27 440.62
  L 1061.30 440.62
  A 0.67 0.66 -11.1 0 1 1060.68 440.21
  L 1037.31 384.30
  A 0.23 0.23 0.0 0 0 1036.87 384.39
  Z"
/>
<path fill="#2c8fc4" d="
  M 1214.09 353.30
  L 1182.70 353.30
  A 0.57 0.57 0.0 0 0 1182.13 353.87
  L 1182.13 374.16
  A 0.57 0.57 0.0 0 0 1182.70 374.73
  L 1207.65 374.73
  A 0.57 0.57 0.0 0 1 1208.22 375.30
  L 1208.22 394.94
  A 0.57 0.57 0.0 0 1 1207.65 395.51
  L 1182.77 395.51
  A 0.57 0.57 0.0 0 0 1182.20 396.08
  L 1182.20 419.58
  A 0.57 0.57 0.0 0 0 1182.77 420.15
  L 1214.88 420.15
  A 0.57 0.57 0.0 0 1 1215.45 420.72
  L 1215.45 440.05
  A 0.57 0.57 0.0 0 1 1214.88 440.62
  L 1160.93 440.62
  A 0.57 0.57 0.0 0 1 1160.36 440.05
  L 1160.36 332.96
  A 0.57 0.57 0.0 0 1 1160.93 332.39
  L 1214.09 332.39
  A 0.57 0.57 0.0 0 1 1214.66 332.96
  L 1214.66 352.73
  A 0.57 0.57 0.0 0 1 1214.09 353.30
  Z"
/>
<path fill="#2c8fc4" d="
  M 1287.64 440.09
  A 0.39 0.39 0.0 0 1 1287.27 440.61
  L 1266.07 440.59
  A 0.86 0.84 -8.9 0 1 1265.26 440.01
  L 1250.90 396.76
  A 1.05 1.05 0.0 0 0 1249.91 396.05
  L 1245.04 396.05
  A 0.47 0.47 0.0 0 0 1244.57 396.52
  L 1244.55 440.29
  A 0.37 0.37 0.0 0 1 1244.17 440.66
  L 1223.71 440.65
  A 0.85 0.85 0.0 0 1 1222.86 439.80
  L 1222.93 332.88
  A 0.47 0.47 0.0 0 1 1223.40 332.41
  Q 1237.54 332.29 1257.89 332.36
  C 1268.03 332.40 1277.38 336.91 1281.95 346.03
  C 1285.33 352.79 1286.05 362.06 1285.22 369.74
  C 1284.21 379.20 1280.59 387.19 1272.12 391.58
  A 0.67 0.66 67.1 0 0 1271.80 392.38
  L 1287.64 440.09
  Z
  M 1244.42 353.69
  L 1244.50 375.19
  A 0.45 0.45 0.0 0 0 1244.95 375.64
  L 1256.55 375.60
  A 7.95 7.81 -0.2 0 0 1264.47 367.77
  L 1264.45 360.99
  A 7.95 7.81 -0.2 0 0 1256.47 353.20
  L 1244.87 353.24
  A 0.45 0.45 0.0 0 0 1244.42 353.69
  Z"
/>
<path fill="#2c8fc4" d="
  M 935.29 440.08
  A 0.39 0.39 0.0 0 1 934.92 440.60
  L 913.73 440.60
  A 0.86 0.84 -8.9 0 1 912.92 440.02
  L 898.54 396.80
  A 1.05 1.04 -9.3 0 0 897.55 396.09
  L 892.69 396.09
  A 0.47 0.47 0.0 0 0 892.22 396.56
  L 892.22 440.31
  A 0.37 0.37 0.0 0 1 891.85 440.68
  L 871.40 440.68
  A 0.85 0.85 0.0 0 1 870.55 439.83
  L 870.55 332.97
  A 0.47 0.47 0.0 0 1 871.02 332.50
  Q 885.15 332.37 905.49 332.43
  C 915.62 332.46 924.97 336.97 929.54 346.08
  C 932.93 352.83 933.65 362.10 932.83 369.77
  C 931.82 379.23 928.21 387.22 919.75 391.61
  A 0.67 0.66 67.1 0 0 919.43 392.41
  L 935.29 440.08
  Z
  M 892.26 353.84
  L 892.14 375.12
  A 0.54 0.54 0.0 0 0 892.68 375.66
  L 904.58 375.72
  A 7.44 7.14 -89.7 0 0 911.76 368.32
  L 911.80 360.84
  A 7.44 7.14 -89.7 0 0 904.70 353.36
  L 892.80 353.30
  A 0.54 0.54 0.0 0 0 892.26 353.84
  Z"
/>
<path fill="#e57f25" d="
  M 329.66 390.05
  L 329.26 390.05
  A 2.00 1.98 72.4 0 1 327.66 389.21
  Q 321.74 380.85 320.43 373.24
  Q 317.59 356.80 328.63 343.03
  A 3.67 3.67 0.0 0 1 332.97 341.96
  L 333.07 342.01
  A 2.50 2.49 28.3 0 1 334.17 345.66
  C 331.34 350.03 328.88 353.61 327.29 358.28
  Q 322.29 373.00 330.44 388.78
  A 0.87 0.87 0.0 0 1 329.66 390.05
  Z"
/>
<path fill="#2c8fc4" d="
  M 390.90 394.22
  L 390.84 394.19
  A 1.20 1.20 0.0 0 1 390.50 392.38
  Q 396.88 384.69 397.92 372.47
  C 398.71 363.24 395.98 355.10 390.79 347.59
  Q 389.56 345.80 389.55 344.79
  C 389.53 342.94 391.78 340.93 393.64 342.12
  Q 395.48 343.29 397.01 345.56
  Q 405.73 358.45 402.68 374.92
  Q 400.71 385.61 392.95 393.90
  A 1.67 1.67 0.0 0 1 390.90 394.22
  Z"
/>
<path fill="#e57f25" d="
  M 360.86 345.24
  L 361.08 351.47
  C 352.06 353.01 345.42 357.25 343.43 366.53
  C 342.92 368.92 343.27 371.68 342.92 373.54
  A 0.96 0.91 66.8 0 1 342.79 373.89
  L 341.25 376.35
  A 1.03 1.03 0.0 0 1 339.42 376.21
  Q 336.55 369.43 339.17 361.82
  Q 344.46 346.46 360.86 345.24
  Z"
/>
<path fill="#2c8fc4" d="
  M 361.08 351.47
  L 360.86 345.24
  C 378.11 344.70 390.53 361.53 382.81 377.83
  A 1.10 1.09 56.3 0 1 380.73 377.41
  Q 380.62 375.28 380.91 373.10
  C 382.45 361.11 372.38 351.79 361.08 351.47
  Z"
/>
<path fill="#ffffff" d="
  M 619.99 520.47
  L 610.79 520.60
  Q 607.81 518.77 605.21 517.24
  C 598.90 513.54 593.56 509.49 583.99 503.26
  Q 581.25 501.47 579.50 500.00
  Q 567.64 489.98 558.10 481.05
  A 0.78 0.77 -38.5 0 0 557.18 480.95
  L 546.21 487.28
  A 0.85 0.85 0.0 0 1 545.28 487.23
  Q 539.99 483.33 533.05 479.75
  C 531.00 478.70 528.52 475.92 527.02 473.43
  Q 521.84 464.84 519.24 461.01
  C 516.40 456.82 509.71 456.42 507.02 453.50
  Q 499.20 445.04 489.31 434.76
  A 0.90 0.90 0.0 0 0 488.02 434.75
  Q 482.16 440.74 475.33 446.83
  C 471.56 450.19 470.18 452.31 465.54 451.08
  C 463.80 450.62 461.88 451.23 460.92 452.16
  Q 454.20 458.67 448.12 462.98
  A 0.95 0.95 0.0 0 1 446.93 462.92
  L 434.59 452.13
  A 0.82 0.80 51.3 0 0 433.69 452.02
  L 423.39 457.31
  A 1.14 1.13 -38.3 0 1 422.15 457.17
  Q 412.98 449.45 406.77 443.49
  Q 404.38 441.19 402.91 438.11
  Q 398.76 429.40 396.06 423.70
  Q 394.41 420.23 393.29 418.99
  A 3.84 3.69 81.7 0 0 392.20 418.14
  Q 388.31 416.09 385.71 414.34
  Q 383.97 413.18 381.15 408.39
  Q 374.26 396.74 362.13 374.07
  A 0.44 0.44 0.0 0 0 361.38 374.02
  Q 353.97 384.49 342.97 399.73
  C 341.57 401.67 339.92 403.32 337.63 404.27
  C 332.91 406.24 330.04 407.42 327.77 411.53
  Q 319.84 425.87 313.14 437.14
  C 311.26 440.29 301.01 441.34 297.78 442.02
  Q 295.76 442.45 293.98 444.99
  C 289.07 451.97 284.08 459.64 277.81 464.81
  Q 275.48 466.74 272.91 465.15
  C 266.52 461.20 260.72 455.51 255.08 449.76
  C 250.66 445.25 245.59 442.83 239.47 438.82
  A 0.53 0.53 0.0 0 0 238.78 438.90
  L 219.02 460.33
  A 4.41 4.34 12.9 0 1 216.97 461.59
  L 212.47 462.83
  A 1.52 1.48 15.1 0 0 211.81 463.20
  Q 204.46 470.38 195.64 479.77
  C 193.30 482.27 190.64 484.39 187.99 486.33
  A 1.29 1.28 -47.1 0 1 186.56 486.39
  L 170.56 476.40
  A 1.12 1.12 0.0 0 0 169.27 476.47
  Q 156.10 486.91 144.74 499.20
  Q 141.37 502.85 132.34 508.31
  C 120.58 515.42 112.74 520.69 101.05 525.80
  Q 98.78 526.79 78.57 535.07
  A 0.26 0.26 0.0 0 1 78.33 534.61
  C 87.13 528.96 96.28 523.83 104.96 518.15
  Q 118.51 509.30 132.09 501.34
  Q 136.23 498.91 139.44 495.69
  Q 146.04 489.07 151.29 483.98
  C 156.72 478.71 162.83 474.27 168.12 469.27
  A 0.79 0.79 0.0 0 1 168.98 469.12
  Q 177.69 472.95 186.09 478.68
  A 1.83 1.82 -49.9 0 0 188.39 478.48
  Q 197.73 469.37 206.50 459.74
  C 209.64 456.28 213.90 457.18 217.27 453.53
  Q 229.24 440.54 238.05 431.69
  A 0.70 0.70 0.0 0 1 238.91 431.59
  L 256.96 442.85
  A 2.03 1.78 -3.7 0 1 257.22 443.05
  Q 259.75 445.25 262.79 448.65
  C 266.25 452.52 270.77 456.18 274.24 459.37
  A 0.87 0.87 0.0 0 0 275.52 459.26
  L 291.97 438.27
  A 5.11 5.10 -74.5 0 1 295.36 436.35
  Q 301.27 435.63 307.49 433.43
  A 2.32 2.29 -83.6 0 0 308.69 432.46
  Q 316.75 419.17 323.05 408.06
  C 325.09 404.47 326.55 402.81 330.05 401.17
  Q 332.56 399.99 336.09 398.11
  A 6.87 6.86 -86.2 0 0 338.46 396.03
  L 361.25 363.74
  A 0.99 0.99 0.0 0 1 362.91 363.79
  Q 365.93 368.77 367.81 372.25
  Q 378.39 391.87 386.84 406.19
  Q 388.42 408.87 390.86 410.40
  C 396.98 414.22 399.03 415.55 401.58 420.93
  Q 403.77 425.53 408.01 435.31
  Q 408.94 437.44 412.07 440.27
  Q 418.87 446.44 421.69 449.56
  Q 423.14 451.18 425.58 449.80
  Q 428.97 447.87 434.80 444.52
  A 0.81 0.81 0.0 0 1 435.78 444.65
  C 439.69 448.59 443.32 452.78 447.44 455.51
  A 1.01 1.01 0.0 0 0 448.67 455.42
  L 459.38 445.85
  A 4.22 4.20 25.1 0 1 462.33 444.79
  C 464.20 444.86 467.51 445.99 469.94 443.69
  Q 478.40 435.70 488.15 426.11
  A 0.83 0.82 -44.7 0 1 489.30 426.11
  Q 497.42 434.17 507.37 445.15
  Q 512.10 450.37 519.41 453.44
  Q 521.87 454.47 524.31 458.18
  Q 525.04 459.30 533.53 472.05
  C 535.83 475.51 541.14 477.57 546.13 480.44
  A 0.99 0.98 -46.9 0 0 547.19 480.40
  C 549.49 478.85 556.17 474.73 558.92 475.19
  A 2.11 2.04 -21.6 0 1 559.79 475.55
  C 567.09 480.67 573.83 487.20 579.96 492.51
  Q 584.07 496.08 592.63 501.79
  Q 606.17 510.82 619.99 520.47
  Z"
/>
<path fill="#e57f25" d="
  M 265.30 414.31
  Q 262.00 414.44 261.40 411.02
  A 1.48 1.47 56.1 0 1 261.60 409.98
  L 262.74 408.16
  A 0.79 0.78 55.9 0 0 262.84 407.62
  L 260.90 397.05
  A 0.89 0.89 0.0 0 0 260.46 396.42
  Q 260.10 396.20 258.93 395.58
  C 255.09 393.53 257.19 387.61 261.69 388.86
  Q 264.90 389.75 264.67 393.14
  C 264.60 394.28 263.52 394.85 263.10 395.76
  A 1.40 1.39 -39.6 0 0 263.01 396.69
  Q 263.19 397.40 264.87 406.86
  Q 264.99 407.53 266.17 408.57
  C 267.97 410.15 267.89 412.13 266.30 413.85
  A 1.42 1.40 19.9 0 1 265.30 414.31
  Z"
/>
<path fill="#ffffff" d="
  M 325.26 521.15
  A 0.43 0.43 0.0 0 0 324.65 520.64
  Q 320.65 522.75 316.72 525.47
  Q 298.52 538.09 283.85 552.34
  A 0.19 0.19 0.0 0 1 283.55 552.10
  Q 288.00 544.69 289.96 540.97
  C 292.98 535.20 293.39 527.27 294.10 517.54
  Q 294.21 515.96 295.65 514.31
  Q 298.76 510.77 301.95 506.80
  A 3.15 2.99 79.1 0 0 302.34 506.19
  L 310.94 488.69
  A 0.24 0.24 0.0 0 0 310.56 488.41
  Q 310.52 488.46 307.41 491.92
  Q 300.17 499.99 296.83 502.34
  Q 292.74 505.20 287.41 508.66
  A 7.32 7.31 88.5 0 0 285.05 511.15
  L 279.40 520.93
  A 2.76 2.72 -83.0 0 1 277.80 522.20
  C 270.37 524.45 265.47 525.66 259.72 529.17
  C 251.81 533.99 245.60 538.08 232.35 546.92
  A 12.60 12.49 -69.7 0 1 228.84 548.55
  C 209.81 554.03 192.63 560.75 172.71 568.22
  A 0.21 0.21 0.0 0 1 172.52 567.84
  Q 199.20 550.88 208.42 545.15
  C 212.55 542.57 216.58 539.46 220.23 535.61
  Q 232.55 522.65 245.82 510.10
  Q 247.35 508.65 252.68 505.95
  Q 256.31 504.10 263.94 500.80
  C 268.19 498.96 268.88 496.29 271.22 493.05
  Q 289.41 467.82 295.12 459.11
  Q 298.01 454.70 302.15 453.67
  Q 305.72 452.78 315.35 449.38
  Q 317.55 448.61 318.45 446.96
  Q 324.26 436.37 330.04 425.80
  Q 333.71 419.08 340.00 414.69
  A 0.88 0.87 36.3 0 1 340.76 414.58
  L 341.62 414.88
  A 1.05 1.03 32.1 0 0 342.67 414.65
  Q 344.63 412.79 346.13 410.63
  Q 353.94 399.45 360.53 389.13
  A 0.11 0.11 0.0 0 1 360.74 389.19
  L 360.55 416.04
  A 6.37 6.29 -60.7 0 0 361.48 419.42
  Q 364.04 423.62 365.10 427.65
  Q 368.46 440.45 368.97 443.07
  A 0.30 0.30 0.0 0 1 368.46 443.33
  L 356.26 430.29
  A 0.21 0.20 40.8 0 0 355.95 430.31
  Q 350.87 437.47 345.40 443.81
  C 341.49 448.34 338.93 453.44 335.22 458.70
  A 0.12 0.12 0.0 0 0 335.40 458.86
  L 352.00 445.67
  A 0.94 0.94 0.0 0 1 353.50 446.17
  Q 355.94 455.61 356.81 466.13
  C 357.20 470.86 364.13 476.63 367.32 480.52
  Q 372.77 487.17 379.90 494.71
  A 0.18 0.17 -6.2 0 1 379.68 494.98
  L 359.79 483.50
  A 2.34 2.34 0.0 0 0 356.50 484.53
  C 354.43 488.94 355.24 493.51 355.32 499.78
  A 0.40 0.40 0.0 0 1 354.58 500.00
  Q 350.45 493.56 347.25 488.49
  Q 344.49 484.12 345.40 480.53
  Q 345.48 480.20 347.16 469.92
  A 0.23 0.23 0.0 0 0 346.75 469.74
  Q 338.93 480.10 334.45 491.92
  Q 333.76 493.72 330.91 496.91
  Q 324.53 504.05 317.95 511.20
  A 0.18 0.18 0.0 0 0 318.18 511.48
  Q 328.48 505.53 337.07 501.30
  C 339.58 500.06 342.69 503.43 344.03 505.19
  A 1.59 1.58 -60.1 0 1 344.33 506.31
  C 343.80 511.12 338.24 517.85 334.45 521.24
  Q 326.92 527.97 321.26 534.18
  A 0.21 0.21 0.0 0 1 320.90 533.97
  L 325.26 521.15
  Z"
/>
<path fill="#e57f25" d="
  M 186.35 401.03
  Q 187.17 401.19 188.37 403.49
  Q 190.65 407.84 186.59 409.87
  Q 185.91 410.21 184.60 409.95
  Q 183.29 409.69 182.79 409.12
  Q 179.80 405.71 183.55 402.54
  Q 185.53 400.87 186.35 401.03
  Z"
/>
<path fill="#ffffff" d="
  M 375.12 422.28
  L 372.90 420.34
  A 1.91 1.87 -75.1 0 1 372.29 419.26
  L 370.72 410.66
  A 0.36 0.36 0.0 0 1 371.41 410.47
  L 375.59 421.96
  A 0.29 0.29 0.0 0 1 375.12 422.28
  Z"
/>
<path fill="#ffffff" d="
  M 383.47 440.09
  A 0.30 0.29 -60.6 0 1 384.03 439.93
  L 388.79 451.03
  A 6.96 6.85 15.2 0 0 389.59 452.40
  C 393.54 457.67 397.11 463.06 399.27 469.63
  A 0.23 0.23 0.0 0 1 398.89 469.86
  Q 394.33 465.00 388.21 460.08
  Q 387.29 459.34 385.75 456.72
  A 2.04 2.01 -64.0 0 1 385.48 455.92
  L 383.47 440.09
  Z"
/>
<path fill="#ffffff" d="
  M 508.10 536.34
  A 0.22 0.22 0.0 0 1 507.72 536.56
  Q 495.40 522.52 494.48 521.50
  Q 490.26 516.80 488.47 509.77
  C 487.33 505.29 486.91 502.71 484.83 499.51
  A 2.71 2.65 89.0 0 0 484.02 498.71
  Q 472.40 491.30 463.30 479.95
  Q 462.72 479.22 461.24 478.74
  A 3.40 3.22 72.1 0 1 460.16 478.15
  L 453.32 472.47
  A 0.61 0.61 0.0 0 1 453.37 471.49
  Q 460.51 466.58 465.45 461.21
  Q 466.08 460.52 466.79 460.77
  A 2.30 2.04 22.5 0 1 468.20 463.66
  Q 467.74 464.63 467.61 465.31
  A 0.71 0.71 0.0 0 0 468.81 465.94
  L 488.05 446.70
  A 0.52 0.52 0.0 0 1 488.85 446.78
  Q 495.94 457.44 503.43 472.55
  A 0.24 0.24 0.0 0 1 503.10 472.86
  Q 501.78 472.15 500.71 471.03
  Q 495.72 465.84 490.91 458.99
  A 0.44 0.44 0.0 0 0 490.11 459.24
  L 490.02 471.68
  A 2.15 2.14 23.9 0 0 490.60 473.17
  Q 499.55 482.72 506.70 495.37
  A 0.21 0.21 0.0 0 1 506.41 495.65
  L 495.88 489.07
  A 0.08 0.08 0.0 0 0 495.76 489.14
  L 495.90 507.27
  A 1.45 1.41 -59.1 0 0 496.05 507.91
  C 500.40 516.63 504.91 526.73 508.10 536.34
  Z"
/>
<path fill="#e57f25" d="
  M 1304.10 476.89
  Q 1322.53 467.55 1325.98 447.88
  A 0.30 0.30 0.0 0 1 1326.57 447.88
  C 1328.19 456.84 1328.02 466.12 1327.55 477.01
  C 1326.47 502.00 1310.82 523.08 1284.98 526.84
  Q 1279.33 527.66 1269.98 527.66
  Q 1062.44 527.71 825.05 527.70
  A 1.29 1.27 20.9 0 0 824.10 528.12
  L 805.51 548.29
  A 1.97 1.94 -67.4 0 1 804.01 548.92
  L 650.56 542.98
  A 0.18 0.18 0.0 0 1 650.39 542.79
  L 650.41 542.24
  A 0.13 0.13 0.0 0 1 650.54 542.11
  L 801.06 539.88
  A 1.22 1.21 20.6 0 0 801.93 539.49
  L 820.24 519.63
  A 1.55 1.52 -68.3 0 1 821.37 519.13
  Q 1257.96 519.07 1267.49 519.18
  C 1284.84 519.37 1296.55 518.02 1307.96 506.24
  C 1316.92 496.99 1321.54 481.21 1322.37 468.74
  A 0.42 0.42 0.0 0 0 1321.65 468.42
  Q 1315.46 474.74 1304.25 477.33
  A 0.24 0.23 -64.4 0 1 1304.10 476.89
  Z"
/>
<path fill="#ffffff" d="
  M 140.24 514.70
  L 169.08 487.69
  A 0.47 0.46 -54.8 0 1 169.57 487.60
  Q 180.43 491.68 189.16 498.65
  A 1.00 1.00 0.0 0 0 190.67 498.33
  Q 191.79 496.18 193.43 494.43
  Q 204.95 482.18 213.88 473.88
  Q 216.08 471.84 218.25 471.24
  C 220.17 470.70 221.28 470.67 222.75 468.92
  Q 230.50 459.68 237.81 451.01
  A 0.47 0.47 0.0 0 1 238.63 451.36
  L 236.66 472.46
  A 2.11 2.06 62.8 0 1 236.40 473.30
  C 234.65 476.41 230.30 479.11 226.26 482.24
  Q 224.01 483.98 224.45 487.76
  Q 224.80 490.78 225.42 497.74
  Q 225.76 501.50 223.11 503.85
  Q 211.40 514.26 203.15 521.70
  A 0.22 0.22 0.0 0 1 202.80 521.44
  Q 204.90 517.12 208.99 511.25
  Q 210.20 509.50 210.91 507.91
  Q 214.72 499.33 217.63 491.42
  A 0.27 0.27 0.0 0 0 217.18 491.14
  Q 214.75 493.73 211.30 496.05
  Q 208.36 498.03 196.25 505.82
  A 2.30 2.22 -63.7 0 1 195.30 506.16
  Q 191.81 506.52 187.06 508.56
  Q 172.03 515.04 165.18 519.24
  A 16.08 15.32 -80.1 0 0 162.92 520.91
  C 156.02 527.03 151.03 531.27 143.49 534.85
  Q 131.62 540.49 127.21 543.02
  A 0.09 0.09 0.0 0 1 127.11 542.87
  Q 130.03 540.42 145.83 528.61
  C 149.74 525.69 154.08 521.71 156.81 517.05
  Q 162.12 508.01 164.17 504.10
  A 0.50 0.49 -81.1 0 0 163.65 503.38
  Q 161.45 503.78 160.16 504.39
  Q 152.16 508.14 140.45 514.98
  A 0.18 0.18 0.0 0 1 140.24 514.70
  Z"
/>
<path fill="#ffffff" d="
  M 456.49 510.09
  Q 451.45 503.85 444.58 493.38
  C 441.72 489.01 435.01 488.15 432.15 484.84
  Q 427.39 479.33 424.74 472.39
  A 0.66 0.65 -29.2 0 1 424.96 471.63
  L 432.67 465.88
  A 1.08 1.08 0.0 0 1 434.28 466.28
  Q 438.85 475.67 443.29 482.53
  C 449.26 491.73 452.63 500.17 456.89 509.86
  A 0.24 0.23 14.3 0 1 456.49 510.09
  Z"
/>
<path fill="#ffffff" d="
  M 518.43 478.77
  Q 513.92 471.64 510.88 469.36
  A 0.73 0.73 0.0 0 1 510.88 468.20
  Q 511.11 468.03 511.76 467.99
  Q 512.28 467.95 512.60 468.24
  Q 517.41 472.66 518.90 478.57
  A 0.26 0.26 0.0 0 1 518.43 478.77
  Z"
/>
<path fill="#ffffff" d="
  M 389.46 474.17
  A 0.11 0.11 0.0 0 1 389.63 474.05
  L 396.89 480.75
  A 5.77 5.71 -76.7 0 1 398.54 483.45
  L 403.01 499.65
  A 0.47 0.47 0.0 0 1 402.68 500.23
  L 402.38 500.32
  A 0.20 0.19 73.6 0 1 402.15 500.19
  Q 399.42 492.58 395.95 486.53
  Q 392.08 479.79 389.46 474.17
  Z"
/>
<path fill="#e57f25" d="
  M 1286.54 487.20
  A 0.29 0.28 -90.0 0 1 1286.26 487.49
  L 1281.42 487.49
  A 0.25 0.24 90.0 0 1 1281.18 487.24
  C 1281.22 481.29 1273.91 480.85 1272.53 486.34
  C 1272.04 488.26 1271.13 500.18 1274.21 502.49
  Q 1276.07 503.88 1278.94 503.16
  C 1281.52 502.51 1281.09 499.40 1280.71 497.46
  A 0.74 0.74 0.0 0 0 1279.90 496.87
  L 1277.25 497.21
  A 0.63 0.63 0.0 0 1 1276.54 496.58
  L 1276.54 493.28
  A 1.01 1.00 -90.0 0 1 1277.54 492.27
  L 1285.49 492.27
  A 1.19 1.19 0.0 0 1 1286.68 493.46
  Q 1286.69 497.25 1286.72 502.53
  C 1286.74 505.65 1284.54 506.69 1281.69 507.71
  C 1274.54 510.27 1267.64 507.46 1266.48 499.50
  C 1265.27 491.14 1264.65 478.68 1275.63 477.43
  C 1282.21 476.68 1286.53 480.63 1286.54 487.20
  Z"
/>
<path fill="#e57f25" d="
  M 643.36 477.52
  C 652.49 477.46 654.35 485.79 654.40 493.04
  C 654.44 500.29 652.69 508.63 643.55 508.68
  C 634.41 508.74 632.55 500.42 632.51 493.17
  C 632.46 485.92 634.22 477.58 643.36 477.52
  Z
  M 638.84 493.06
  C 638.79 497.04 638.59 503.54 643.37 503.60
  C 648.15 503.66 648.11 497.16 648.16 493.18
  C 648.20 489.20 648.41 482.70 643.63 482.64
  C 638.85 482.58 638.89 489.08 638.84 493.06
  Z"
/>
<path fill="#e57f25" d="
  M 758.33 487.36
  A 0.29 0.28 -89.4 0 1 758.04 487.65
  L 753.21 487.59
  A 0.25 0.24 -89.4 0 1 752.98 487.34
  C 753.08 481.40 745.79 480.88 744.35 486.35
  C 743.84 488.26 742.80 500.14 745.85 502.48
  Q 747.69 503.89 750.56 503.21
  C 753.15 502.59 752.75 499.48 752.39 497.54
  A 0.74 0.73 -8.2 0 0 751.59 496.94
  L 748.94 497.25
  A 0.63 0.63 0.0 0 1 748.24 496.61
  L 748.28 493.32
  A 1.01 1.00 -89.4 0 1 749.29 492.32
  L 757.22 492.41
  A 1.19 1.19 0.0 0 1 758.40 493.61
  Q 758.36 497.39 758.34 502.66
  C 758.32 505.78 756.11 506.79 753.26 507.78
  C 746.09 510.25 739.24 507.37 738.17 499.41
  C 737.05 491.06 736.57 478.61 747.54 477.49
  C 754.12 476.81 758.39 480.80 758.33 487.36
  Z"
/>
<path fill="#e57f25" d="
  M 925.48 499.83
  A 0.96 0.96 0.0 0 1 926.45 498.69
  L 930.25 498.80
  A 1.23 1.23 0.0 0 1 931.44 499.89
  C 931.89 503.88 936.53 504.75 938.61 501.88
  C 940.27 499.58 938.45 497.37 935.98 496.29
  C 932.30 494.67 927.63 492.54 926.47 488.31
  C 923.02 475.80 943.85 472.70 944.99 486.13
  A 0.62 0.62 0.0 0 1 944.35 486.80
  L 939.63 486.56
  A 0.92 0.92 0.0 0 1 938.80 485.88
  C 938.02 483.69 938.09 482.14 934.80 482.63
  C 930.83 483.22 931.18 487.90 934.39 489.38
  C 939.90 491.90 945.14 493.23 944.89 500.33
  Q 944.67 506.10 940.06 507.77
  C 933.08 510.28 926.88 507.43 925.48 499.83
  Z"
/>
<path fill="#e57f25" d="
  M 1148.21 498.64
  A 9.91 9.91 0.0 0 1 1138.30 508.55
  L 1136.84 508.55
  A 9.91 9.91 0.0 0 1 1126.93 498.64
  L 1126.93 487.58
  A 9.91 9.91 0.0 0 1 1136.84 477.67
  L 1138.30 477.67
  A 9.91 9.91 0.0 0 1 1148.21 487.58
  L 1148.21 498.64
  Z
  M 1142.32 493.30
  C 1142.38 489.26 1142.61 482.67 1137.76 482.60
  C 1132.92 482.52 1132.94 489.11 1132.88 493.15
  C 1132.81 497.19 1132.58 503.77 1137.43 503.85
  C 1142.28 503.93 1142.26 497.33 1142.32 493.30
  Z"
/>
<path fill="#e57f25" d="
  M 681.25 478.51
  L 681.20 482.35
  A 0.58 0.58 0.0 0 1 680.62 482.93
  L 671.14 483.01
  A 0.69 0.69 0.0 0 0 670.46 483.69
  L 670.42 490.17
  A 0.72 0.72 0.0 0 0 671.16 490.89
  L 679.45 490.77
  A 0.52 0.52 0.0 0 1 679.98 491.29
  L 679.97 495.37
  A 0.59 0.58 0.5 0 1 679.37 495.95
  L 671.07 495.79
  A 0.61 0.60 -0.0 0 0 670.45 496.41
  L 670.55 507.54
  A 0.77 0.77 0.0 0 1 669.79 508.31
  L 665.04 508.38
  A 0.65 0.65 0.0 0 1 664.38 507.73
  L 664.36 478.40
  A 0.49 0.49 0.0 0 1 664.85 477.91
  L 680.63 477.89
  A 0.62 0.61 0.4 0 1 681.25 478.51
  Z"
/>
<path fill="#e57f25" d="
  M 696.59 483.54
  L 696.59 490.16
  A 0.61 0.61 0.0 0 0 697.20 490.77
  L 705.50 490.77
  A 0.61 0.61 0.0 0 1 706.11 491.38
  L 706.11 495.20
  A 0.61 0.61 0.0 0 1 705.50 495.81
  L 697.24 495.81
  A 0.61 0.61 0.0 0 0 696.63 496.42
  L 696.63 507.65
  A 0.61 0.61 0.0 0 1 696.02 508.26
  L 691.13 508.26
  A 0.61 0.61 0.0 0 1 690.52 507.65
  L 690.52 478.47
  A 0.61 0.61 0.0 0 1 691.13 477.86
  L 706.75 477.86
  A 0.61 0.61 0.0 0 1 707.36 478.47
  L 707.36 482.32
  A 0.61 0.61 0.0 0 1 706.75 482.93
  L 697.20 482.93
  A 0.61 0.61 0.0 0 0 696.59 483.54
  Z"
/>
<path fill="#e57f25" d="
  M 769.33 477.90
  Q 776.73 477.90 779.94 478.03
  Q 785.51 478.24 787.25 483.39
  Q 789.68 490.61 784.33 495.43
  A 0.88 0.87 -31.9 0 0 784.10 496.42
  L 788.70 507.98
  A 0.22 0.21 79.8 0 1 788.50 508.28
  L 782.77 508.25
  A 0.40 0.40 0.0 0 1 782.40 507.99
  L 778.31 497.70
  A 0.76 0.72 -83.2 0 0 778.11 497.43
  Q 776.99 496.50 775.47 496.99
  A 0.93 0.92 -9.0 0 0 774.84 497.85
  L 774.78 507.98
  A 0.33 0.32 -0.0 0 1 774.45 508.30
  L 768.93 508.26
  A 0.38 0.38 0.0 0 1 768.55 507.88
  L 768.76 478.46
  A 0.57 0.56 -0.0 0 1 769.33 477.90
  Z
  M 774.86 483.56
  L 774.80 491.14
  A 0.77 0.77 0.0 0 0 775.57 491.91
  L 778.10 491.93
  A 3.73 3.66 -89.6 0 0 781.78 488.22
  L 781.80 486.56
  A 3.73 3.66 -89.6 0 0 778.16 482.81
  L 775.63 482.79
  A 0.77 0.77 0.0 0 0 774.86 483.56
  Z"
/>
<path fill="#e57f25" d="
  M 815.46 478.48
  A 0.62 0.62 0.0 0 1 816.08 477.86
  L 823.98 477.86
  A 11.81 11.48 90.0 0 1 835.46 489.67
  L 835.46 496.61
  A 11.81 11.48 -90.0 0 1 823.98 508.42
  L 816.08 508.42
  A 0.62 0.62 0.0 0 1 815.46 507.80
  L 815.46 478.48
  Z
  M 821.63 483.49
  L 821.67 502.67
  A 0.62 0.62 0.0 0 0 822.29 503.29
  L 823.81 503.28
  A 5.76 5.44 89.9 0 0 829.24 497.51
  L 829.22 488.61
  A 5.76 5.44 89.9 0 0 823.77 482.86
  L 822.25 482.87
  A 0.62 0.62 0.0 0 0 821.63 483.49
  Z"
/>
<path fill="#e57f25" d="
  M 877.30 508.26
  L 872.91 508.34
  A 0.23 0.23 0.0 0 1 872.68 508.17
  L 867.56 489.64
  A 0.23 0.23 0.0 0 0 867.11 489.71
  L 867.44 508.02
  A 0.23 0.23 0.0 0 1 867.21 508.25
  L 861.62 508.36
  A 0.23 0.23 0.0 0 1 861.38 508.12
  L 861.61 478.18
  A 0.23 0.23 0.0 0 1 861.84 477.95
  L 869.01 478.01
  A 0.23 0.23 0.0 0 1 869.23 478.18
  L 874.96 498.93
  A 0.23 0.23 0.0 0 0 875.40 498.92
  L 880.64 478.02
  A 0.23 0.23 0.0 0 1 880.86 477.84
  L 888.41 477.90
  A 0.23 0.23 0.0 0 1 888.64 478.13
  L 888.41 508.15
  A 0.23 0.23 0.0 0 1 888.18 508.38
  L 882.50 508.34
  A 0.23 0.23 0.0 0 1 882.27 508.10
  L 883.00 489.10
  A 0.23 0.23 0.0 0 0 882.83 488.86
  L 882.59 488.81
  A 0.23 0.23 0.0 0 0 882.31 488.97
  L 877.52 508.09
  A 0.23 0.23 0.0 0 1 877.30 508.26
  Z"
/>
<path fill="#e57f25" d="
  M 1069.63 508.44
  Q 1068.06 508.44 1066.88 508.37
  A 0.42 0.42 0.0 0 1 1066.48 507.95
  L 1066.66 483.78
  A 0.65 0.64 90.0 0 0 1066.02 483.13
  L 1060.08 483.09
  A 0.69 0.69 0.0 0 1 1059.40 482.40
  L 1059.43 478.32
  A 0.42 0.41 -0.1 0 1 1059.84 477.91
  Q 1069.59 477.95 1069.68 477.95
  Q 1069.78 477.95 1079.52 477.94
  A 0.42 0.41 0.3 0 1 1079.94 478.35
  L 1079.95 482.43
  A 0.69 0.69 0.0 0 1 1079.27 483.12
  L 1073.33 483.14
  A 0.65 0.64 -89.8 0 0 1072.69 483.79
  L 1072.79 507.96
  A 0.42 0.42 0.0 0 1 1072.39 508.38
  Q 1071.21 508.45 1069.63 508.44
  Z"
/>
<path fill="#e57f25" d="
  M 1208.76 508.30
  L 1202.11 508.30
  A 0.50 0.49 78.0 0 1 1201.66 508.00
  L 1197.15 497.22
  A 0.77 0.76 58.9 0 0 1195.96 496.92
  C 1193.29 499.11 1193.97 504.47 1194.17 508.01
  A 0.26 0.25 88.9 0 1 1193.92 508.28
  L 1188.12 508.28
  A 0.28 0.28 0.0 0 1 1187.84 508.00
  L 1187.84 478.51
  A 0.63 0.62 -0.0 0 1 1188.47 477.89
  L 1193.53 477.89
  A 0.54 0.54 0.0 0 1 1194.07 478.43
  L 1194.07 489.47
  A 0.27 0.26 -29.0 0 0 1194.56 489.61
  L 1201.64 478.27
  A 0.72 0.72 0.0 0 1 1202.26 477.92
  L 1208.83 477.92
  A 0.08 0.08 0.0 0 1 1208.90 478.04
  L 1200.51 490.76
  A 0.87 0.84 -42.7 0 0 1200.46 491.61
  L 1208.91 508.06
  A 0.17 0.17 0.0 0 1 1208.76 508.30
  Z"
/>
<rect fill="#e57f25" x="1217.55" y="477.86" width="5.90" height="30.38" rx="0.40"/>
<path fill="#e57f25" d="
  M 1249.64 496.63
  L 1249.77 478.00
  A 0.13 0.12 -0.0 0 1 1249.90 477.88
  L 1255.30 477.92
  A 0.31 0.30 0.9 0 1 1255.61 478.23
  L 1255.40 507.66
  A 0.68 0.68 0.0 0 1 1254.72 508.33
  L 1250.50 508.30
  A 1.35 1.34 77.6 0 1 1249.30 507.52
  L 1241.03 489.67
  A 0.10 0.10 0.0 0 0 1240.84 489.71
  L 1240.70 507.91
  A 0.43 0.43 0.0 0 1 1240.27 508.34
  L 1235.05 508.30
  A 0.47 0.47 0.0 0 1 1234.58 507.82
  L 1234.79 478.45
  A 0.59 0.58 -89.0 0 1 1235.38 477.87
  L 1240.06 477.90
  A 1.06 1.06 0.0 0 1 1241.01 478.52
  L 1249.42 496.68
  A 0.12 0.11 -57.3 0 0 1249.64 496.63
  Z"
/>
<rect fill="#e57f25" x="798.48" y="477.93" width="6.02" height="30.30" rx="0.42"/>
<path fill="#e57f25" d="
  M 916.64 478.50
  L 916.64 482.30
  A 0.55 0.55 0.0 0 1 916.09 482.85
  L 905.95 482.85
  A 0.55 0.55 0.0 0 0 905.40 483.40
  L 905.40 489.68
  A 0.55 0.55 0.0 0 0 905.95 490.23
  L 914.49 490.23
  A 0.55 0.55 0.0 0 1 915.04 490.78
  L 915.04 494.68
  A 0.55 0.55 0.0 0 1 914.49 495.23
  L 906.03 495.23
  A 0.55 0.55 0.0 0 0 905.48 495.78
  L 905.48 502.68
  A 0.55 0.55 0.0 0 0 906.03 503.23
  L 916.11 503.23
  A 0.55 0.55 0.0 0 1 916.66 503.78
  L 916.66 507.81
  A 0.55 0.55 0.0 0 1 916.11 508.36
  L 899.94 508.36
  A 0.55 0.55 0.0 0 1 899.39 507.81
  L 899.39 478.50
  A 0.55 0.55 0.0 0 1 899.94 477.95
  L 916.09 477.95
  A 0.55 0.55 0.0 0 1 916.64 478.50
  Z"
/>
<path fill="#e57f25" d="
  M 965.19 490.23
  Q 967.18 490.23 969.10 490.28
  A 0.44 0.43 -89.2 0 0 969.55 489.84
  L 969.64 478.35
  A 0.32 0.32 0.0 0 1 969.96 478.03
  L 975.36 478.07
  A 0.41 0.40 90.0 0 1 975.76 478.48
  L 975.54 507.91
  A 0.44 0.44 0.0 0 1 975.10 508.35
  L 969.95 508.31
  A 0.47 0.47 0.0 0 1 969.48 507.84
  L 969.58 495.53
  A 0.38 0.37 -1.2 0 0 969.19 495.16
  Q 965.97 495.27 965.18 495.27
  Q 964.39 495.27 961.17 495.13
  A 0.38 0.37 1.5 0 0 960.78 495.51
  L 960.81 507.82
  A 0.47 0.47 0.0 0 1 960.34 508.28
  L 955.19 508.30
  A 0.44 0.44 0.0 0 1 954.75 507.85
  L 954.69 478.42
  A 0.41 0.40 -89.7 0 1 955.09 478.01
  L 960.49 478.00
  A 0.32 0.32 0.0 0 1 960.81 478.33
  L 960.84 489.82
  A 0.44 0.43 89.5 0 0 961.28 490.26
  Q 963.21 490.22 965.19 490.23
  Z"
/>
<path fill="#e57f25" d="
  M 1015.15 492.29
  Q 1016.27 495.16 1017.12 496.74
  A 0.33 0.33 0.0 0 0 1017.75 496.58
  L 1017.43 478.46
  A 0.46 0.46 0.0 0 1 1017.89 477.99
  L 1023.15 477.89
  A 0.53 0.52 89.5 0 1 1023.68 478.42
  L 1023.46 507.77
  A 0.56 0.56 0.0 0 1 1022.90 508.33
  L 1018.10 508.42
  A 1.18 1.16 76.1 0 1 1017.04 507.77
  Q 1013.60 500.81 1010.94 494.05
  Q 1009.82 491.18 1008.97 489.60
  A 0.33 0.33 0.0 0 0 1008.34 489.76
  L 1008.66 507.88
  A 0.46 0.46 0.0 0 1 1008.20 508.35
  L 1002.94 508.45
  A 0.53 0.52 89.5 0 1 1002.41 507.92
  L 1002.63 478.57
  A 0.56 0.56 0.0 0 1 1003.19 478.01
  L 1007.99 477.92
  A 1.18 1.16 76.1 0 1 1009.05 478.57
  Q 1012.49 485.53 1015.15 492.29
  Z"
/>
<path fill="#e57f25" d="
  M 1034.48 478.75
  A 0.75 0.75 0.0 0 1 1035.23 478.00
  L 1051.10 478.02
  A 0.61 0.61 0.0 0 1 1051.71 478.64
  L 1051.62 482.41
  A 0.56 0.56 0.0 0 1 1051.05 482.96
  L 1041.00 482.84
  A 0.54 0.54 0.0 0 0 1040.45 483.37
  L 1040.45 489.68
  A 0.55 0.55 0.0 0 0 1041.00 490.23
  L 1049.51 490.26
  A 0.59 0.59 0.0 0 1 1050.09 490.86
  L 1050.03 494.73
  A 0.55 0.55 0.0 0 1 1049.47 495.26
  L 1041.19 495.19
  A 0.57 0.57 0.0 0 0 1040.61 495.75
  L 1040.46 502.56
  A 0.62 0.61 1.4 0 0 1041.07 503.19
  L 1051.02 503.23
  A 0.63 0.63 0.0 0 1 1051.65 503.85
  L 1051.66 507.74
  A 0.57 0.56 -0.5 0 1 1051.10 508.31
  L 1034.85 508.32
  A 0.40 0.39 -90.0 0 1 1034.46 507.92
  L 1034.48 478.75
  Z"
/>
<path fill="#e57f25" d="
  M 1103.07 478.09
  Q 1104.70 478.09 1105.28 478.10
  A 0.66 0.66 0.0 0 1 1105.91 478.63
  L 1109.05 495.74
  A 0.07 0.07 0.0 0 0 1109.19 495.75
  L 1112.40 478.72
  A 0.87 0.86 5.2 0 1 1113.25 478.02
  L 1117.72 478.02
  A 0.52 0.51 5.5 0 1 1118.23 478.63
  L 1112.74 507.77
  A 0.66 0.65 -84.7 0 1 1112.10 508.31
  L 1107.09 508.31
  A 0.71 0.70 85.1 0 1 1106.40 507.72
  Q 1105.74 503.68 1103.16 491.79
  Q 1103.07 491.42 1103.09 491.42
  Q 1103.10 491.42 1103.02 491.79
  Q 1100.45 503.68 1099.80 507.73
  A 0.71 0.70 -85.2 0 1 1099.11 508.32
  L 1094.10 508.32
  A 0.66 0.65 84.6 0 1 1093.46 507.79
  L 1087.92 478.65
  A 0.52 0.51 -5.6 0 1 1088.43 478.04
  L 1092.90 478.04
  A 0.87 0.86 -5.3 0 1 1093.75 478.73
  L 1096.99 495.76
  A 0.07 0.07 0.0 0 0 1097.13 495.75
  L 1100.24 478.63
  A 0.66 0.66 0.0 0 1 1100.87 478.10
  Q 1101.44 478.09 1103.07 478.09
  Z"
/>
<path fill="#e57f25" d="
  M 1159.10 477.95
  Q 1166.49 477.95 1169.70 478.08
  Q 1175.26 478.29 1176.99 483.44
  Q 1179.42 490.65 1174.07 495.46
  A 0.88 0.87 -31.9 0 0 1173.84 496.44
  L 1178.43 507.99
  A 0.22 0.21 79.9 0 1 1178.23 508.29
  L 1172.51 508.25
  A 0.40 0.40 0.0 0 1 1172.14 508.00
  L 1168.06 497.72
  A 0.76 0.72 -83.2 0 0 1167.86 497.45
  Q 1166.74 496.52 1165.23 497.01
  A 0.93 0.92 -9.0 0 0 1164.60 497.87
  L 1164.53 507.98
  A 0.33 0.32 -0.0 0 1 1164.20 508.30
  L 1158.69 508.26
  A 0.38 0.38 0.0 0 1 1158.31 507.88
  L 1158.53 478.51
  A 0.57 0.56 0.0 0 1 1159.10 477.95
  Z
  M 1164.57 483.56
  L 1164.55 491.20
  A 0.80 0.80 0.0 0 0 1165.34 492.00
  L 1167.82 492.01
  A 3.86 3.85 0.2 0 0 1171.70 488.17
  L 1171.70 486.63
  A 3.86 3.85 0.2 0 0 1167.86 482.77
  L 1165.38 482.76
  A 0.80 0.80 0.0 0 0 1164.57 483.56
  Z"
/>
<path fill="#e57f25" d="
  M 614.21 480.27
  L 604.00 491.34
  A 0.30 0.30 0.0 0 1 603.77 491.44
  L 590.45 491.06
  A 0.30 0.30 0.0 0 1 590.27 491.00
  L 576.61 480.31
  A 0.30 0.30 0.0 0 1 576.80 479.77
  L 613.99 479.77
  A 0.30 0.30 0.0 0 1 614.21 480.27
  Z"
/>
<path fill="#ffffff" d="
  M 580.46 511.92
  A 0.02 0.02 0.0 0 1 580.44 511.96
  L 563.72 505.03
  A 0.02 0.02 0.0 0 1 563.73 505.00
  Q 564.35 505.18 562.20 504.18
  A 0.49 0.48 -0.9 0 0 561.56 504.83
  L 570.50 522.22
  A 0.17 0.17 0.0 0 1 570.24 522.42
  C 564.16 516.77 559.20 511.93 552.18 507.57
  C 548.78 505.45 547.01 503.74 546.27 500.07
  A 1.94 1.94 0.0 0 1 547.10 498.07
  L 556.61 491.78
  A 0.74 0.73 -41.0 0 1 557.50 491.84
  L 580.46 511.92
  Z"
/>
<rect fill="#e57f25" x="-5.33" y="-2.52" transform="translate(721.63,495.31) rotate(-0.1)" width="10.66" height="5.04" rx="0.77"/>
<path fill="#ffffff" d="
  M 485.56 520.98
  Q 479.07 513.82 475.70 510.83
  C 471.61 507.20 469.69 503.65 467.49 499.42
  A 0.32 0.32 0.0 0 1 467.95 499.01
  C 471.91 501.63 475.73 503.42 477.88 506.87
  Q 481.72 513.04 486.01 520.65
  A 0.28 0.28 0.0 0 1 485.56 520.98
  Z"
/>
<path fill="#ffffff" d="
  M 548.66 534.34
  A 0.23 0.22 13.3 0 1 548.31 534.55
  Q 539.70 529.12 532.07 523.22
  C 527.98 520.07 524.96 518.69 520.51 517.52
  Q 518.04 516.88 516.29 514.46
  Q 512.48 509.18 508.60 504.75
  A 0.30 0.30 0.0 0 1 508.65 504.31
  Q 508.76 504.23 508.99 504.36
  Q 514.41 507.39 522.33 510.19
  Q 525.37 511.27 530.09 515.49
  Q 539.05 523.48 548.10 533.39
  Q 548.61 533.95 548.66 534.34
  Z"
/>
<path fill="#ffffff" d="
  M 333.84 576.22
  A 0.25 0.24 68.9 0 1 333.53 576.08
  A 0.11 0.10 67.2 0 1 333.58 575.94
  Q 357.23 564.38 370.03 555.75
  Q 378.31 550.16 391.13 541.63
  Q 393.94 539.76 396.98 538.24
  Q 406.20 533.62 414.53 528.27
  C 418.54 525.69 420.40 520.42 422.09 515.82
  A 0.36 0.35 -89.8 0 0 421.64 515.36
  L 391.19 526.44
  A 0.22 0.22 0.0 0 1 391.00 526.05
  L 422.68 505.88
  A 2.54 2.53 36.2 0 1 424.70 505.57
  C 437.54 508.96 447.39 519.36 455.09 529.91
  A 3.13 3.12 72.0 0 0 457.59 531.19
  L 461.63 531.22
  A 0.44 0.44 0.0 0 0 461.87 530.40
  Q 459.97 529.19 459.29 527.93
  A 0.45 0.45 0.0 0 1 459.84 527.30
  Q 463.04 528.49 466.83 528.86
  C 468.73 529.05 471.69 529.97 472.83 530.65
  Q 489.86 540.82 495.54 544.21
  Q 517.23 557.17 539.07 567.03
  A 0.22 0.21 -29.1 0 1 538.95 567.44
  L 508.70 563.92
  A 12.57 12.33 58.6 0 1 505.50 563.11
  Q 493.21 558.23 482.02 552.47
  Q 479.16 551.00 466.82 548.47
  Q 464.75 548.05 461.25 545.55
  C 455.11 541.15 448.34 535.80 444.69 528.89
  A 0.94 0.94 0.0 0 0 443.00 528.95
  L 440.44 534.63
  A 3.11 3.06 84.3 0 1 439.48 535.82
  C 435.36 538.92 430.01 542.82 424.49 545.56
  C 414.43 550.54 410.16 552.85 402.45 557.08
  Q 397.20 559.97 390.02 563.06
  A 0.39 0.39 0.0 0 1 389.54 562.50
  L 396.06 552.04
  A 0.20 0.20 0.0 0 0 395.85 551.74
  Q 391.34 552.81 386.73 555.00
  Q 382.06 557.21 369.28 564.09
  Q 367.64 564.97 365.60 565.69
  C 354.93 569.46 344.24 572.70 333.84 576.22
  Z"
/>
<path fill="#e57f25" d="
  M 623.95 523.63
  Q 619.96 523.02 615.95 523.80
  L 577.67 521.45
  A 0.13 0.07 -0.0 0 1 577.61 521.42
  Q 577.48 521.26 577.43 521.20
  A 0.07 0.07 0.0 0 1 577.49 521.09
  L 610.79 520.60
  L 619.99 520.47
  L 801.98 519.79
  A 0.62 0.61 21.1 0 1 802.44 520.82
  L 796.49 527.28
  A 3.32 3.29 -67.6 0 1 793.95 528.35
  L 623.95 523.63
  Z"
/>
<path fill="#ffffff" d="
  M 623.95 523.63
  L 641.60 533.97
  A 0.24 0.24 0.0 0 1 641.40 534.40
  Q 628.70 530.13 615.95 523.80
  Q 619.96 523.02 623.95 523.63
  Z"
/>
<path fill="#ffffff" d="
  M 257.69 548.16
  C 261.61 545.47 266.58 543.08 271.46 540.67
  A 0.26 0.26 0.0 0 1 271.77 541.05
  C 268.39 545.41 265.29 549.22 260.52 552.50
  C 256.61 555.20 251.63 557.58 246.76 560.00
  A 0.26 0.26 0.0 0 1 246.44 559.61
  C 249.83 555.26 252.93 551.44 257.69 548.16
  Z"
/>
<path fill="#ffffff" d="
  M 452.08 562.89
  A 0.30 0.30 0.0 0 1 451.54 563.10
  L 445.69 555.25
  A 2.84 2.79 -64.5 0 1 445.13 553.62
  Q 445.02 549.06 447.47 545.78
  A 0.68 0.68 0.0 0 1 448.70 546.14
  L 449.16 552.66
  A 14.56 14.52 -57.2 0 0 450.04 556.77
  Q 452.02 562.15 452.08 562.89
  Z"
/>
</g>
</svg>
