<?xml version="1.0" encoding="UTF-8" standalone="no"?>
<!DOCTYPE svg PUBLIC "-//W3C//DTD SVG 1.1//EN" "http://www.w3.org/Graphics/SVG/1.1/DTD/svg11.dtd">
<svg xmlns="http://www.w3.org/2000/svg" version="1.1" viewBox="0.00 0.00 1392.00 768.00">
<g stroke-width="2.00" fill="none" stroke-linecap="butt">
<path stroke="#888575" vector-effect="non-scaling-stroke" d="
  M 360.67 183.26
  Q 360.25 192.24 360.61 200.99
  Q 360.88 207.57 360.78 212.02
  Q 360.64 217.54 360.54 223.06
  Q 360.53 223.82 359.81 224.48"
/>
<path stroke="#888575" vector-effect="non-scaling-stroke" d="
  M 371.71 276.21
  L 371.46 279.30"
/>
<path stroke="#888575" vector-effect="non-scaling-stroke" d="
  M 361.01 289.56
  L 360.97 294.74"
/>
<path stroke="#888575" vector-effect="non-scaling-stroke" d="
  M 360.69 307.57
  L 360.51 314.21"
/>
<path stroke="#888575" vector-effect="non-scaling-stroke" d="
  M 360.56 332.91
  L 360.78 326.45"
/>
<path stroke="#888575" vector-effect="non-scaling-stroke" d="
  M 360.54 345.25
  Q 361.62 348.16 360.46 351.53"
/>
<path stroke="#eebf96" vector-effect="non-scaling-stroke" d="
  M 619.87 520.45
  Q 614.38 520.59 608.25 519.03"
/>
<path stroke="#eebf96" vector-effect="non-scaling-stroke" d="
  M 623.97 523.54
  Q 619.70 522.79 615.72 523.67"
/>
</g>
<g>
<path fill="#dc7e2d" d="
  M 360.67 183.26
  Q 360.25 192.24 360.61 200.99
  Q 360.88 207.57 360.78 212.02
  Q 360.64 217.54 360.54 223.06
  Q 360.53 223.82 359.81 224.48
  L 352.05 219.35
  A 0.85 0.84 35.8 0 0 350.92 219.53
  L 305.12 277.99
  A 0.44 0.44 0.0 0 0 305.48 278.70
  L 371.71 276.21
  L 371.46 279.30
  L 302.84 282.03
  A 1.82 1.79 -71.9 0 0 301.48 282.73
  L 281.46 308.28
  A 0.94 0.94 0.0 0 0 281.81 309.72
  L 292.40 314.46
  A 0.38 0.38 0.0 0 1 292.19 315.18
  Q 286.03 314.15 280.03 311.33
  A 1.16 1.15 31.2 0 0 278.63 311.67
  L 262.24 333.16
  A 0.92 0.91 -31.9 0 0 262.07 333.87
  Q 262.31 335.23 263.16 336.06
  Q 263.68 336.56 264.53 336.34
  Q 275.39 333.57 285.93 332.37
  A 0.19 0.19 0.0 0 1 286.04 332.73
  Q 285.06 333.26 282.30 334.04
  Q 274.43 336.25 266.63 338.14
  Q 264.71 338.60 263.73 339.20
  A 1.13 1.11 -9.3 0 0 263.24 339.87
  Q 261.92 345.08 258.92 346.58
  C 254.00 349.02 248.03 346.48 246.71 341.11
  Q 245.85 337.61 248.87 333.16
  A 1.38 1.37 -43.1 0 0 248.92 331.69
  Q 244.79 324.61 240.16 316.25
  Q 237.04 310.62 235.67 308.39
  Q 232.86 303.82 231.54 300.34
  A 0.79 0.79 0.0 0 0 230.40 299.93
  L 225.52 302.74
  A 2.00 2.00 0.0 0 1 223.53 302.76
  L 207.54 293.88
  A 1.09 1.09 0.0 0 1 206.98 292.93
  L 206.98 273.53
  A 0.71 0.69 75.4 0 1 207.33 272.92
  L 222.87 263.95
  A 2.11 2.10 44.6 0 1 224.94 263.94
  L 238.89 271.69
  A 1.89 1.89 0.0 0 0 240.74 271.67
  L 341.96 213.23
  A 1.46 1.46 0.0 0 0 342.70 211.96
  L 342.70 195.19
  A 2.59 2.59 0.0 0 1 343.99 192.95
  L 360.67 183.26
  Z
  M 358.41 188.29
  L 347.95 194.37
  A 0.16 0.16 0.0 0 0 347.90 194.59
  L 347.97 194.71
  A 4.26 4.18 59.8 0 0 353.72 196.29
  L 357.23 194.25
  A 4.26 4.18 59.8 0 0 358.70 188.46
  L 358.63 188.34
  A 0.16 0.16 0.0 0 0 358.41 188.29
  Z
  M 346.18 197.74
  L 346.32 209.70
  A 0.13 0.13 0.0 0 0 346.45 209.83
  L 346.50 209.83
  A 4.50 4.35 -0.7 0 0 350.95 205.42
  L 350.91 201.90
  A 4.50 4.35 -0.7 0 0 346.36 197.61
  L 346.31 197.61
  A 0.13 0.13 0.0 0 0 346.18 197.74
  Z
  M 348.51 213.49
  L 358.18 219.49
  A 0.11 0.11 0.0 0 0 358.33 219.45
  L 358.36 219.42
  A 4.63 4.53 31.8 0 0 356.81 213.13
  L 354.82 211.89
  A 4.63 4.53 31.8 0 0 348.50 213.30
  L 348.48 213.34
  A 0.11 0.11 0.0 0 0 348.51 213.49
  Z
  M 241.70 280.48
  A 0.85 0.85 0.0 0 0 242.58 281.30
  L 299.22 278.93
  A 1.44 1.40 -64.1 0 0 300.00 278.65
  Q 301.71 277.40 303.29 275.28
  Q 309.95 266.31 314.21 261.06
  Q 322.71 250.58 325.35 247.03
  Q 335.39 233.58 348.34 217.88
  A 0.73 0.73 0.0 0 0 348.10 216.77
  L 345.43 215.43
  A 1.05 1.02 -45.9 0 0 344.43 215.46
  L 242.07 274.56
  A 1.12 1.10 -16.5 0 0 241.51 275.57
  L 241.70 280.48
  Z
  M 236.37 273.79
  L 225.67 268.15
  A 0.05 0.05 0.0 0 0 225.60 268.17
  L 225.60 268.17
  A 4.37 4.07 27.8 0 0 227.57 273.81
  L 230.63 275.42
  A 4.37 4.07 27.8 0 0 236.39 273.86
  L 236.39 273.86
  A 0.05 0.05 0.0 0 0 236.37 273.79
  Z
  M 222.35 268.39
  L 212.09 274.05
  A 0.10 0.10 0.0 0 0 212.05 274.19
  L 212.10 274.28
  A 4.13 3.82 -28.9 0 0 217.56 275.62
  L 220.76 273.86
  A 4.13 3.82 -28.9 0 0 222.53 268.52
  L 222.48 268.43
  A 0.10 0.10 0.0 0 0 222.35 268.39
  Z
  M 210.27 277.07
  L 210.39 289.95
  A 0.12 0.12 0.0 0 0 210.51 290.07
  L 210.58 290.07
  A 4.42 4.09 89.5 0 0 214.63 285.61
  L 214.59 281.33
  A 4.42 4.09 89.5 0 0 210.46 276.95
  L 210.39 276.95
  A 0.12 0.12 0.0 0 0 210.27 277.07
  Z
  M 238.33 288.68
  L 238.37 277.18
  A 0.17 0.17 0.0 0 0 238.20 277.01
  L 238.16 277.01
  A 4.17 3.39 0.2 0 0 233.98 280.38
  L 233.96 285.44
  A 4.17 3.39 0.2 0 0 238.12 288.85
  L 238.16 288.85
  A 0.17 0.17 0.0 0 0 238.33 288.68
  Z
  M 296.75 283.40
  A 0.68 0.68 0.0 0 0 296.18 282.30
  L 242.42 284.35
  A 0.68 0.68 0.0 0 0 241.77 285.06
  L 241.92 289.10
  A 0.68 0.68 0.0 0 0 242.30 289.68
  L 277.32 307.30
  A 0.68 0.68 0.0 0 0 278.16 307.11
  L 296.75 283.40
  Z
  M 229.64 293.59
  L 231.34 294.53
  A 0.94 0.94 0.0 0 0 232.27 294.52
  L 236.80 291.91
  A 0.45 0.45 0.0 0 0 236.79 291.13
  L 233.36 289.23
  A 0.53 0.52 -51.6 0 0 232.73 289.31
  L 229.23 292.82
  A 1.17 1.17 0.0 0 1 228.06 293.10
  Q 226.75 292.68 225.93 293.37
  A 0.88 0.85 -21.9 0 0 225.63 294.04
  L 225.78 298.02
  A 0.49 0.49 0.0 0 0 226.62 298.35
  L 228.97 296.00
  A 1.48 1.47 66.8 0 0 229.40 294.91
  L 229.35 293.76
  A 0.19 0.19 0.0 0 1 229.64 293.59
  Z
  M 212.22 292.39
  L 221.97 298.36
  A 0.12 0.12 0.0 0 0 222.14 298.33
  L 222.14 298.32
  A 4.13 3.34 -58.5 0 0 221.45 293.05
  L 217.19 290.44
  A 4.13 3.34 -58.5 0 0 212.19 292.21
  L 212.18 292.22
  A 0.12 0.12 0.0 0 0 212.22 292.39
  Z
  M 275.82 309.97
  L 242.42 293.17
  A 1.11 1.11 0.0 0 0 241.39 293.19
  L 234.06 297.25
  A 0.77 0.77 0.0 0 0 233.76 298.29
  L 251.63 330.60
  A 1.21 1.20 67.2 0 0 253.02 331.17
  Q 255.74 330.35 258.43 331.83
  A 0.67 0.66 -56.3 0 0 259.27 331.66
  L 275.92 310.41
  A 0.29 0.29 0.0 0 0 275.82 309.97
  Z"
/>
<path fill="#338bbc" d="
  M 371.46 279.30
  L 371.71 276.21
  L 411.40 274.86
  A 0.19 0.18 70.8 0 0 411.54 274.56
  L 370.37 219.39
  A 0.62 0.61 -36.9 0 0 369.50 219.27
  Q 365.57 222.31 361.00 224.63
  Q 360.39 224.94 359.81 224.48
  Q 360.53 223.82 360.54 223.06
  Q 360.64 217.54 360.78 212.02
  Q 360.88 207.57 360.61 200.99
  Q 360.25 192.24 360.67 183.26
  L 377.64 193.44
  A 1.10 1.08 15.8 0 1 378.17 194.37
  L 378.17 211.46
  A 0.29 0.29 0.0 0 0 378.33 211.72
  L 478.94 262.32
  A 0.92 0.90 -46.6 0 0 479.79 262.29
  L 495.23 253.37
  A 1.30 1.29 44.4 0 1 496.48 253.36
  L 512.82 262.44
  A 1.51 1.51 0.0 0 1 513.60 263.76
  L 513.60 282.23
  A 0.66 0.66 0.0 0 1 513.27 282.80
  L 497.06 292.16
  A 1.06 1.05 -46.4 0 1 496.05 292.19
  L 490.86 289.58
  A 0.42 0.42 0.0 0 0 490.27 289.82
  C 488.00 296.00 486.09 301.33 482.66 308.35
  Q 476.59 320.78 470.45 335.03
  A 1.34 1.34 0.0 0 0 470.65 336.41
  C 472.17 338.22 473.29 340.27 473.15 342.89
  C 472.53 354.66 453.91 352.66 456.79 339.71
  C 457.02 338.70 457.81 337.89 458.05 336.91
  A 1.05 1.04 33.4 0 0 457.87 336.05
  L 439.45 311.37
  A 0.69 0.68 56.5 0 0 438.55 311.18
  L 432.43 314.71
  A 0.43 0.42 -81.4 0 1 431.93 314.03
  L 436.45 309.81
  A 1.44 1.43 -39.8 0 0 436.63 307.90
  L 414.57 278.34
  A 1.86 1.84 -19.3 0 0 413.01 277.60
  L 371.46 279.30
  Z
  M 372.52 195.03
  A 0.56 0.56 0.0 0 0 372.48 194.07
  L 362.44 188.50
  A 0.56 0.56 0.0 0 0 361.61 188.99
  L 361.60 192.59
  A 0.56 0.56 0.0 0 0 361.89 193.08
  L 368.98 197.01
  A 0.56 0.56 0.0 0 0 369.56 196.99
  L 372.52 195.03
  Z
  M 374.56 208.76
  L 374.36 198.12
  A 0.28 0.28 0.0 0 0 374.07 197.85
  L 373.89 197.85
  A 3.40 3.22 -1.1 0 0 370.55 201.14
  L 370.65 205.90
  A 3.40 3.22 -1.1 0 0 374.11 209.05
  L 374.29 209.05
  A 0.28 0.28 0.0 0 0 374.56 208.76
  Z
  M 362.68 219.96
  L 373.28 213.18
  A 0.12 0.12 0.0 0 0 373.32 213.02
  L 373.31 213.00
  A 4.79 4.14 -32.6 0 0 367.04 212.09
  L 364.31 213.84
  A 4.79 4.14 -32.6 0 0 362.51 219.91
  L 362.52 219.93
  A 0.12 0.12 0.0 0 0 362.68 219.96
  Z
  M 478.46 271.36
  L 478.25 265.94
  A 1.05 1.02 -81.1 0 0 477.59 265.01
  Q 475.01 264.05 462.87 257.66
  Q 457.81 255.00 450.77 251.60
  C 429.98 241.56 409.68 230.90 394.27 223.44
  C 389.76 221.26 382.66 217.24 377.49 214.59
  A 1.09 1.07 -49.6 0 0 376.36 214.69
  L 373.49 216.83
  A 0.72 0.72 0.0 0 0 373.34 217.84
  L 415.04 273.71
  A 1.83 1.83 0.0 0 0 416.57 274.45
  L 477.76 272.11
  A 0.73 0.72 -2.4 0 0 478.46 271.36
  Z
  M 494.26 257.62
  L 483.39 264.05
  A 0.15 0.15 0.0 0 0 483.34 264.25
  L 483.42 264.39
  A 4.66 4.23 -30.6 0 0 489.59 265.66
  L 492.68 263.83
  A 4.66 4.23 -30.6 0 0 494.54 257.81
  L 494.46 257.68
  A 0.15 0.15 0.0 0 0 494.26 257.62
  Z
  M 508.52 264.23
  L 497.63 257.77
  A 0.13 0.13 0.0 0 0 497.46 257.82
  L 497.41 257.88
  A 4.28 3.81 30.7 0 0 499.15 263.35
  L 502.90 265.57
  A 4.28 3.81 30.7 0 0 508.52 264.48
  L 508.56 264.41
  A 0.13 0.13 0.0 0 0 508.52 264.23
  Z
  M 506.19 268.72
  A 0.51 0.51 0.0 0 0 505.90 269.19
  L 506.03 276.56
  A 0.51 0.51 0.0 0 0 506.38 277.03
  L 509.72 278.14
  A 0.51 0.51 0.0 0 0 510.39 277.65
  L 510.19 267.64
  A 0.51 0.51 0.0 0 0 509.47 267.18
  L 506.19 268.72
  Z
  M 481.95 267.68
  L 481.99 279.00
  A 0.17 0.17 0.0 0 0 482.16 279.17
  L 482.27 279.17
  A 3.86 3.64 -0.2 0 0 486.12 275.51
  L 486.10 271.13
  A 3.86 3.64 -0.2 0 0 482.23 267.51
  L 482.12 267.51
  A 0.17 0.17 0.0 0 0 481.95 267.68
  Z
  M 440.06 307.18
  A 0.32 0.32 0.0 0 0 440.49 307.25
  L 478.45 282.07
  A 0.32 0.32 0.0 0 0 478.59 281.81
  L 478.78 275.39
  A 0.32 0.32 0.0 0 0 478.45 275.06
  L 418.43 277.36
  A 0.32 0.32 0.0 0 0 418.18 277.87
  L 440.06 307.18
  Z
  M 505.38 279.94
  A 1.62 1.60 37.5 0 0 504.01 280.11
  L 498.20 283.85
  A 1.36 1.36 0.0 0 0 497.70 285.57
  L 498.31 286.87
  A 0.78 0.77 61.0 0 0 499.43 287.20
  L 508.11 281.62
  A 0.45 0.45 0.0 0 0 508.01 280.82
  L 505.38 279.94
  Z
  M 484.24 282.75
  L 493.79 287.66
  A 0.30 0.30 0.0 0 0 494.19 287.53
  L 494.41 287.10
  A 3.28 3.20 -62.8 0 0 493.06 282.72
  L 488.67 280.47
  A 3.28 3.20 -62.8 0 0 484.33 281.92
  L 484.11 282.35
  A 0.30 0.30 0.0 0 0 484.24 282.75
  Z
  M 466.75 334.02
  A 0.83 0.83 0.0 0 0 467.47 333.53
  L 487.55 288.77
  A 0.83 0.83 0.0 0 0 487.19 287.71
  L 481.61 284.60
  A 0.83 0.83 0.0 0 0 480.76 284.63
  L 442.87 308.97
  A 0.83 0.83 0.0 0 0 442.65 310.16
  L 460.38 333.91
  A 0.83 0.83 0.0 0 0 461.08 334.24
  L 466.75 334.02
  Z"
/>
<path fill="#dc7e2d" d="
  M 545.29 267.52
  A 0.22 0.22 0.0 0 0 545.08 267.74
  L 545.08 267.75
  A 0.23 0.22 -88.7 0 0 545.29 267.98
  L 638.96 274.52
  A 0.03 0.03 0.0 0 1 638.98 274.56
  Q 638.98 274.57 638.98 274.58
  A 0.04 0.03 -75.1 0 1 638.95 274.60
  C 628.87 274.83 617.42 274.25 608.76 274.36
  Q 570.48 274.88 521.47 275.18
  A 0.43 0.43 0.0 0 1 521.03 274.75
  L 521.15 261.91
  A 1.36 1.28 26.7 0 0 520.85 261.08
  L 518.26 257.92
  A 0.69 0.69 0.0 0 1 518.81 256.79
  C 549.30 257.55 575.84 257.56 610.83 257.88
  Q 632.14 258.07 672.68 259.07
  Q 707.16 259.93 742.16 260.56
  A 0.36 0.35 1.6 0 1 742.51 260.92
  L 742.51 261.17
  A 0.17 0.16 -90.0 0 1 742.35 261.34
  Q 723.12 261.60 713.75 261.88
  C 668.48 263.27 602.10 264.20 545.29 267.52
  Z"
/>
<path fill="#338bbc" d="
  M 1082.42 258.05
  L 1075.44 265.62
  A 0.13 0.13 0.0 0 1 1075.34 265.66
  L 922.39 261.37
  A 0.13 0.13 0.0 0 1 922.27 261.25
  L 922.26 261.02
  A 0.13 0.13 0.0 0 1 922.39 260.89
  L 1082.33 257.84
  A 0.13 0.13 0.0 0 1 1082.42 258.05
  Z"
/>
<path fill="#338bbc" d="
  M 860.23 283.70
  Q 869.59 282.88 882.55 282.67
  Q 886.56 282.60 904.71 281.84
  Q 975.52 278.88 1047.84 276.96
  A 0.61 0.61 0.0 0 1 1048.32 277.96
  L 1043.06 284.22
  A 3.25 3.24 20.1 0 1 1040.55 285.38
  L 860.25 283.79
  A 0.07 0.06 75.1 0 1 860.19 283.75
  L 860.19 283.74
  A 0.04 0.04 0.0 0 1 860.23 283.70
  Z"
/>
<path fill="#dc7e2d" d="
  M 507.52 295.14
  A 0.25 0.24 30.6 0 1 507.40 294.68
  C 511.17 292.57 519.39 288.34 520.57 284.36
  A 1.03 1.03 0.0 0 1 521.56 283.62
  L 843.56 284.19
  A 0.62 0.62 0.0 0 1 843.95 285.29
  L 839.81 288.68
  A 4.66 4.65 25.0 0 1 836.92 289.73
  C 785.73 290.43 738.01 291.69 678.36 292.65
  Q 613.63 293.69 548.00 294.84
  Q 527.88 295.19 507.52 295.14
  Z"
/>
<path fill="#338bbc" d="
  M 884.10 294.80
  L 884.10 294.54
  A 0.03 0.03 0.0 0 1 884.13 294.51
  Q 1001.08 292.47 1005.05 292.42
  Q 1008.03 292.38 1027.95 292.27
  C 1041.89 292.19 1057.01 291.28 1070.31 291.25
  Q 1089.13 291.22 1124.50 290.44
  Q 1141.99 290.06 1246.62 288.68
  Q 1270.86 288.36 1275.83 289.23
  Q 1288.37 291.44 1299.05 297.34
  C 1317.82 307.71 1329.08 329.13 1330.77 350.21
  Q 1332.49 371.54 1323.68 390.64
  A 0.06 0.06 0.0 0 1 1323.61 390.68
  L 1322.99 390.64
  A 0.21 0.21 0.0 0 1 1322.81 390.37
  Q 1325.38 382.46 1325.90 380.13
  C 1329.89 362.39 1328.00 342.89 1318.55 327.47
  C 1310.38 314.15 1297.54 304.15 1282.18 300.18
  Q 1276.34 298.66 1261.69 298.59
  Q 1201.58 298.27 1187.25 298.07
  Q 1113.78 297.03 1090.27 296.97
  Q 1059.04 296.88 1048.23 296.52
  C 1030.01 295.90 1013.22 296.24 992.17 296.00
  Q 938.04 295.40 884.32 295.01
  A 0.22 0.21 -0.0 0 1 884.10 294.80
  Z"
/>
<path fill="#dc7e2d" d="
  M 361.01 289.56
  L 360.97 294.74
  C 354.34 295.35 347.67 295.60 341.48 297.66
  Q 311.70 307.57 297.98 333.15
  Q 289.66 348.66 289.16 366.07
  C 288.65 384.19 294.58 403.20 307.68 416.35
  A 2.80 2.79 -55.4 0 1 308.25 419.47
  L 307.84 420.40
  A 1.32 1.32 0.0 0 1 305.71 420.80
  C 279.71 395.29 274.69 357.41 293.98 326.41
  Q 309.27 301.84 337.19 293.44
  C 343.69 291.49 353.39 289.44 361.01 289.56
  Z"
/>
<path fill="#338bbc" d="
  M 360.97 294.74
  L 361.01 289.56
  Q 365.89 289.29 370.74 289.81
  Q 400.16 292.99 420.44 314.33
  C 431.65 326.12 437.96 342.00 440.16 357.89
  Q 441.67 368.80 438.71 382.39
  Q 435.98 394.91 430.85 403.57
  Q 425.55 412.54 416.86 421.45
  Q 414.93 423.42 412.63 424.13
  A 1.31 1.19 -18.6 0 1 411.05 423.44
  Q 410.53 422.08 411.55 421.05
  Q 417.59 414.91 423.22 407.22
  C 428.88 399.46 433.25 386.91 434.36 376.34
  Q 436.88 352.43 425.44 332.24
  C 414.80 313.46 394.44 298.29 373.00 295.72
  Q 370.44 295.42 360.97 294.74
  Z"
/>
<path fill="#dc7e2d" d="
  M 645.82 301.40
  L 638.73 308.48
  A 0.43 0.43 0.0 0 0 639.03 309.21
  Q 930.67 309.17 1267.49 309.23
  C 1294.66 309.24 1313.18 331.52 1315.07 357.24
  C 1316.26 373.48 1311.49 386.61 1301.86 399.44
  A 2.83 2.81 52.0 0 0 1301.53 402.22
  Q 1307.00 415.17 1312.12 428.88
  C 1314.62 435.59 1316.01 442.41 1313.18 449.15
  Q 1306.79 464.41 1290.25 464.42
  Q 644.58 464.52 629.37 464.40
  A 2.23 2.22 21.2 0 0 627.73 465.12
  L 621.44 471.93
  A 3.00 3.00 0.0 0 1 619.24 472.89
  L 568.90 472.89
  A 3.49 3.41 57.2 0 1 567.41 472.55
  Q 564.13 470.96 560.44 468.52
  C 558.70 467.36 557.54 467.56 555.56 468.08
  Q 554.26 468.42 548.15 470.40
  A 3.40 3.34 36.1 0 1 547.06 470.56
  Q 541.48 470.50 537.94 465.43
  Q 534.21 460.10 531.66 455.82
  A 0.48 0.47 74.5 0 1 532.06 455.10
  Q 532.12 455.10 539.00 455.14
  Q 614.24 455.48 1291.00 455.12
  C 1302.45 455.12 1308.58 445.25 1304.71 434.78
  Q 1295.32 409.33 1294.43 406.56
  Q 1293.08 402.34 1291.80 399.87
  A 1.75 1.74 52.4 0 1 1292.05 397.91
  Q 1309.70 378.01 1305.48 352.19
  C 1302.47 333.80 1289.29 321.22 1271.11 318.69
  Q 1268.36 318.30 1254.85 318.30
  Q 846.93 318.30 486.80 318.35
  A 0.45 0.44 12.2 0 1 486.39 317.72
  L 494.17 301.01
  A 0.15 0.14 13.2 0 1 494.30 300.93
  L 645.51 300.65
  A 0.44 0.44 0.0 0 1 645.82 301.40
  Z"
/>
<path fill="#dc7e2d" d="
  M 360.69 307.57
  L 360.51 314.21
  C 347.32 315.08 334.46 319.76 324.99 328.96
  Q 311.46 342.10 308.67 360.85
  Q 305.60 381.44 317.70 400.72
  A 1.57 1.57 0.0 0 1 317.77 402.26
  L 316.93 403.92
  A 0.85 0.85 0.0 0 1 315.53 404.10
  C 308.37 395.98 305.01 387.00 302.98 376.02
  C 299.62 357.83 305.97 338.82 318.50 325.76
  Q 335.27 308.31 360.69 307.57
  Z"
/>
<path fill="#338bbc" d="
  M 360.51 314.21
  L 360.69 307.57
  Q 374.83 307.43 386.51 312.72
  Q 399.55 318.63 409.20 330.79
  C 422.80 347.93 425.20 371.69 416.06 391.51
  Q 413.14 397.86 404.76 407.12
  A 3.01 2.98 -71.3 0 1 402.84 408.08
  L 402.64 408.10
  A 0.59 0.58 16.1 0 1 402.12 407.16
  Q 414.57 391.07 415.78 370.01
  C 416.67 354.50 409.05 337.55 397.00 327.56
  Q 385.94 318.40 374.03 315.43
  Q 369.37 314.27 360.51 314.21
  Z"
/>
<path fill="#338bbc" d="
  M 541.87 322.01
  Q 542.77 323.30 541.54 325.59
  A 2.38 2.37 19.0 0 1 539.03 326.81
  Q 537.90 326.60 537.00 326.84
  A 2.39 2.26 18.6 0 0 536.20 327.21
  Q 525.81 334.51 523.76 335.79
  Q 522.46 336.59 522.07 336.03
  Q 521.68 335.48 522.86 334.53
  Q 524.75 333.01 535.08 325.63
  A 2.39 2.26 -89.2 0 0 535.70 325.00
  Q 536.22 324.23 536.40 323.10
  A 2.38 2.37 -89.7 0 1 538.38 321.13
  Q 540.96 320.73 541.87 322.01
  Z"
/>
<path fill="#338bbc" d="
  M 360.56 332.91
  L 360.78 326.45
  Q 372.93 325.93 383.17 332.72
  A 2.58 2.57 32.7 0 1 383.94 336.21
  L 383.89 336.30
  A 2.83 2.83 0.0 0 1 380.32 337.40
  Q 370.28 332.86 360.56 332.91
  Z"
/>
<path fill="#dc7e2d" d="
  M 360.78 326.45
  L 360.56 332.91
  Q 354.96 332.98 343.17 337.55
  A 2.48 2.47 -14.4 0 1 339.82 335.57
  L 339.80 335.44
  A 4.20 4.20 0.0 0 1 342.27 331.05
  Q 352.68 326.47 360.78 326.45
  Z"
/>
<path fill="#338bbc" d="
  M 1104.66 395.89
  L 1094.05 395.89
  A 0.95 0.95 0.0 0 1 1093.10 394.94
  L 1093.10 376.03
  A 0.61 0.61 0.0 0 1 1093.71 375.42
  L 1129.15 375.42
  A 0.91 0.90 -0.3 0 1 1130.06 376.31
  Q 1130.21 384.86 1130.19 404.71
  C 1130.18 413.90 1130.27 419.36 1127.22 426.44
  C 1120.07 443.04 1094.45 444.12 1079.36 440.64
  Q 1070.32 438.55 1065.55 433.94
  C 1059.31 427.90 1056.90 419.44 1056.88 410.89
  Q 1056.82 387.73 1056.68 364.27
  C 1056.65 359.38 1057.84 352.20 1060.16 347.59
  C 1067.92 332.17 1085.17 329.93 1100.65 331.17
  C 1111.01 331.99 1121.37 336.46 1126.19 346.04
  Q 1130.54 354.70 1130.00 364.09
  A 0.71 0.70 -89.5 0 1 1129.33 364.75
  L 1106.61 365.61
  A 0.73 0.72 -0.4 0 1 1105.85 364.87
  Q 1105.91 362.65 1105.47 359.78
  C 1104.13 350.94 1093.14 350.39 1086.52 353.31
  C 1082.27 355.18 1082.21 358.93 1082.23 363.77
  Q 1082.32 387.20 1082.08 409.22
  C 1082.03 413.65 1082.55 419.35 1087.50 420.80
  C 1093.80 422.65 1104.18 422.66 1105.14 414.12
  Q 1105.33 412.50 1105.34 396.57
  A 0.68 0.68 0.0 0 0 1104.66 395.89
  Z"
/>
<path fill="#dc7e2d" d="
  M 804.36 363.76
  A 1.28 1.28 0.0 0 1 803.10 365.06
  L 782.06 365.46
  A 0.99 0.99 0.0 0 1 781.05 364.53
  C 780.72 358.95 781.43 352.58 773.77 351.92
  C 767.87 351.40 761.13 352.17 760.98 359.68
  C 760.91 363.38 760.24 368.53 763.39 370.96
  Q 766.39 373.27 769.67 373.62
  Q 781.67 374.92 791.26 379.16
  C 798.56 382.39 803.22 388.60 804.82 396.83
  Q 806.38 404.87 805.59 414.79
  C 803.63 439.61 779.15 445.69 758.47 440.97
  Q 739.42 436.62 737.45 417.02
  Q 736.94 412.01 736.84 405.80
  A 0.86 0.86 0.0 0 1 737.68 404.92
  L 759.51 404.51
  A 1.35 1.35 0.0 0 1 760.89 405.93
  Q 760.84 407.07 760.89 412.40
  C 760.93 417.01 762.26 419.67 766.61 420.88
  C 771.73 422.30 778.88 422.07 781.05 416.52
  Q 781.94 414.24 781.92 411.06
  C 781.88 405.41 782.20 401.05 777.13 398.06
  Q 773.04 395.65 765.74 394.79
  Q 762.78 394.44 756.83 392.72
  C 746.76 389.82 740.07 383.58 738.22 372.81
  Q 736.32 361.68 738.97 350.77
  C 743.38 332.63 764.01 329.31 779.58 331.64
  C 791.95 333.49 801.19 340.30 803.73 352.80
  C 804.39 356.05 804.27 359.23 804.36 363.76
  Z"
/>
<path fill="#dc7e2d" d="
  M 188.81 335.16
  L 196.46 339.01
  A 1.31 1.31 0.0 0 0 198.09 338.64
  C 200.71 335.23 207.13 339.88 203.59 344.20
  A 1.23 1.21 55.7 0 0 203.38 345.37
  L 208.42 360.19
  A 1.41 1.39 89.1 0 0 209.33 361.08
  Q 212.43 362.07 212.81 364.99
  A 1.73 1.71 -80.2 0 0 213.71 366.28
  Q 235.75 377.77 255.20 388.53
  Q 255.78 388.85 256.00 389.53
  A 0.62 0.62 0.0 0 1 255.22 390.31
  Q 252.72 389.53 249.92 388.03
  Q 247.29 386.63 212.81 368.05
  A 1.50 1.48 53.1 0 0 211.80 367.90
  Q 210.46 368.16 209.35 367.85
  A 1.00 1.00 0.0 0 0 208.22 368.33
  L 193.26 395.26
  A 1.47 1.46 9.7 0 1 192.24 395.98
  L 191.87 396.04
  A 0.83 0.83 0.0 0 1 191.11 394.81
  L 206.13 367.77
  A 2.45 2.43 -37.3 0 0 206.37 366.02
  Q 205.88 364.00 206.91 361.99
  A 0.95 0.93 -40.7 0 0 206.97 361.27
  L 201.60 345.49
  A 0.68 0.68 0.0 0 0 201.02 345.03
  Q 198.69 344.84 197.87 342.31
  A 2.13 2.11 4.7 0 0 196.82 341.08
  L 188.04 336.67
  A 0.47 0.47 0.0 0 0 187.55 336.71
  Q 184.81 338.73 182.52 336.58
  A 1.56 1.53 18.5 0 1 182.05 335.66
  C 181.64 332.56 182.67 330.67 185.92 331.72
  Q 188.23 332.47 188.45 334.64
  A 0.67 0.66 -80.1 0 0 188.81 335.16
  Z"
/>
<path fill="#dc7e2d" d="
  M 592.62 385.08
  L 592.62 439.89
  A 0.83 0.83 0.0 0 1 591.79 440.72
  L 571.77 440.72
  A 1.00 1.00 0.0 0 1 570.77 439.72
  L 570.77 332.96
  A 0.62 0.62 0.0 0 1 571.39 332.34
  L 592.53 332.34
  A 1.42 1.40 -10.7 0 1 593.84 333.22
  L 614.95 386.17
  A 0.41 0.41 0.0 0 0 615.71 386.17
  L 637.09 332.58
  A 0.44 0.44 0.0 0 1 637.50 332.30
  L 660.49 332.30
  A 0.70 0.69 0.0 0 1 661.19 332.99
  L 661.19 439.96
  A 0.69 0.68 -0.0 0 1 660.50 440.64
  L 638.87 440.64
  A 0.61 0.61 0.0 0 1 638.26 440.03
  L 638.26 384.66
  A 0.18 0.17 -34.6 0 0 637.92 384.60
  L 624.52 418.18
  A 1.99 1.98 -79.0 0 1 622.68 419.43
  L 608.54 419.48
  A 3.11 3.05 -33.3 0 1 607.37 419.25
  Q 606.41 418.84 605.53 416.72
  Q 599.11 401.15 593.01 385.01
  A 0.20 0.20 0.0 0 0 592.62 385.08
  Z"
/>
<path fill="#dc7e2d" d="
  M 731.25 420.59
  L 731.21 439.95
  A 0.72 0.72 0.0 0 1 730.49 440.67
  L 671.91 440.57
  A 0.72 0.72 0.0 0 1 671.19 439.85
  L 671.38 332.99
  A 0.72 0.72 0.0 0 1 672.10 332.27
  L 729.82 332.38
  A 0.72 0.72 0.0 0 1 730.54 333.10
  L 730.50 352.64
  A 0.72 0.72 0.0 0 1 729.78 353.36
  L 696.15 353.30
  A 0.72 0.72 0.0 0 0 695.43 354.02
  L 695.40 373.76
  A 0.72 0.72 0.0 0 0 696.12 374.48
  L 722.95 374.53
  A 0.72 0.72 0.0 0 1 723.67 375.25
  L 723.63 394.89
  A 0.72 0.72 0.0 0 1 722.91 395.61
  L 696.09 395.56
  A 0.72 0.72 0.0 0 0 695.37 396.28
  L 695.32 419.08
  A 0.72 0.72 0.0 0 0 696.04 419.80
  L 730.53 419.87
  A 0.72 0.72 0.0 0 1 731.25 420.59
  Z"
/>
<path fill="#dc7e2d" d="
  M 850.20 374.37
  Q 858.14 374.37 860.63 374.33
  A 0.49 0.49 0.0 0 0 861.12 373.84
  L 861.19 333.02
  A 0.63 0.63 0.0 0 1 861.82 332.39
  L 884.84 332.43
  A 0.85 0.85 0.0 0 1 885.69 333.28
  L 885.50 439.82
  A 0.81 0.81 0.0 0 1 884.69 440.63
  L 861.84 440.59
  A 0.72 0.72 0.0 0 1 861.12 439.87
  L 861.20 395.88
  A 0.48 0.48 0.0 0 0 860.72 395.40
  Q 859.50 395.41 850.21 395.41
  Q 840.92 395.42 839.70 395.41
  A 0.48 0.48 0.0 0 0 839.22 395.89
  L 839.33 439.88
  A 0.72 0.72 0.0 0 1 838.61 440.60
  L 815.76 440.66
  A 0.81 0.81 0.0 0 1 814.95 439.85
  L 814.68 333.31
  A 0.85 0.85 0.0 0 1 815.53 332.46
  L 838.55 332.40
  A 0.63 0.63 0.0 0 1 839.18 333.03
  L 839.28 373.85
  A 0.49 0.49 0.0 0 0 839.77 374.34
  Q 842.26 374.38 850.20 374.37
  Z"
/>
<path fill="#338bbc" d="
  M 897.27 332.46
  Q 898.22 332.29 898.50 332.29
  Q 909.41 332.24 938.97 332.49
  C 947.02 332.56 958.17 335.78 963.58 342.38
  C 970.33 350.62 970.91 361.37 970.35 371.90
  C 969.58 386.17 963.23 396.70 948.72 400.46
  C 940.65 402.55 931.63 402.15 922.39 402.05
  A 0.58 0.57 -89.5 0 0 921.82 402.62
  L 921.76 439.60
  A 1.07 1.06 -0.0 0 1 920.69 440.66
  L 897.46 440.62
  A 0.77 0.77 0.0 0 1 896.69 439.85
  L 896.88 332.93
  A 0.49 0.48 -5.9 0 1 897.27 332.46
  Z
  M 921.81 353.84
  L 921.85 380.82
  A 0.59 0.59 0.0 0 0 922.44 381.41
  L 935.73 381.39
  A 9.74 9.42 -0.1 0 0 945.46 371.95
  L 945.44 362.63
  A 9.74 9.42 -0.1 0 0 935.69 353.23
  L 922.40 353.25
  A 0.59 0.59 0.0 0 0 921.81 353.84
  Z"
/>
<path fill="#338bbc" d="
  M 992.89 332.35
  L 1026.40 332.35
  A 0.79 0.79 0.0 0 1 1027.17 332.96
  L 1052.34 439.62
  A 0.79 0.79 0.0 0 1 1051.57 440.59
  L 1027.35 440.59
  A 0.79 0.79 0.0 0 1 1026.58 439.98
  L 1020.85 415.73
  A 0.79 0.79 0.0 0 0 1020.08 415.12
  L 998.44 415.12
  A 0.79 0.79 0.0 0 0 997.67 415.73
  L 991.88 439.96
  A 0.79 0.79 0.0 0 1 991.11 440.57
  L 967.35 440.57
  A 0.79 0.79 0.0 0 1 966.58 439.60
  L 992.12 332.96
  A 0.79 0.79 0.0 0 1 992.89 332.35
  Z
  M 1009.39 394.17
  Q 1012.97 394.19 1016.41 394.15
  A 0.56 0.55 84.4 0 0 1016.94 393.49
  Q 1013.22 374.66 1009.78 356.63
  Q 1009.74 356.42 1009.64 356.42
  Q 1009.55 356.42 1009.50 356.63
  Q 1005.82 374.61 1001.84 393.39
  A 0.56 0.55 -83.7 0 0 1002.37 394.05
  Q 1005.80 394.14 1009.39 394.17
  Z"
/>
<path fill="#338bbc" d="
  M 1201.41 353.32
  L 1166.17 353.25
  A 0.73 0.73 0.0 0 0 1165.44 353.98
  L 1165.40 374.09
  A 0.73 0.73 0.0 0 0 1166.15 374.83
  L 1194.22 374.29
  A 0.73 0.73 0.0 0 1 1194.97 375.03
  L 1194.93 394.69
  A 0.73 0.73 0.0 0 1 1194.20 395.42
  L 1166.22 395.36
  A 0.73 0.73 0.0 0 0 1165.49 396.09
  L 1165.44 419.26
  A 0.73 0.73 0.0 0 0 1166.17 419.99
  L 1202.34 420.05
  A 0.73 0.73 0.0 0 1 1203.07 420.78
  L 1203.04 439.98
  A 0.73 0.73 0.0 0 1 1202.31 440.71
  L 1140.90 440.59
  A 0.73 0.73 0.0 0 1 1140.17 439.86
  L 1140.36 333.00
  A 0.73 0.73 0.0 0 1 1141.09 332.27
  L 1201.44 332.38
  A 0.73 0.73 0.0 0 1 1202.17 333.11
  L 1202.14 352.59
  A 0.73 0.73 0.0 0 1 1201.41 353.32
  Z"
/>
<path fill="#338bbc" d="
  M 1287.42 439.91
  A 0.51 0.51 0.0 0 1 1286.95 440.61
  L 1262.91 440.57
  A 1.19 1.17 78.8 0 1 1261.82 439.82
  L 1245.00 397.64
  A 2.23 2.23 0.0 0 0 1242.93 396.24
  L 1237.58 396.23
  A 0.53 0.53 0.0 0 0 1237.05 396.76
  L 1236.97 440.15
  A 0.45 0.44 0.0 0 1 1236.52 440.59
  L 1212.48 440.55
  A 0.79 0.79 0.0 0 1 1211.69 439.76
  L 1211.88 332.98
  A 0.65 0.64 -0.5 0 1 1212.52 332.34
  Q 1236.47 332.22 1252.02 332.39
  C 1259.46 332.46 1267.96 333.91 1273.88 338.62
  C 1279.03 342.72 1282.20 346.95 1283.83 353.68
  Q 1285.03 358.66 1285.02 366.09
  C 1284.99 377.67 1279.47 387.55 1268.62 391.76
  A 0.37 0.37 0.0 0 0 1268.42 392.24
  L 1287.42 439.91
  Z
  M 1236.99 354.17
  L 1236.99 374.39
  A 0.90 0.90 0.0 0 0 1237.89 375.29
  L 1251.80 375.29
  A 8.69 7.93 0.0 0 0 1260.49 367.36
  L 1260.49 361.20
  A 8.69 7.93 -0.0 0 0 1251.80 353.27
  L 1237.89 353.27
  A 0.90 0.90 0.0 0 0 1236.99 354.17
  Z"
/>
<circle fill="#338bbc" cx="518.55" cy="337.77" r="3.34"/>
<path fill="#338bbc" d="
  M 537.12 367.10
  A 0.63 0.63 0.0 0 0 537.07 366.14
  Q 534.07 363.90 535.51 360.90
  A 0.76 0.75 33.3 0 0 535.32 360.00
  C 534.92 359.67 534.63 359.71 534.12 359.07
  Q 527.23 350.48 521.14 341.62
  A 0.54 0.53 -35.9 0 1 521.26 340.89
  L 521.48 340.73
  A 0.53 0.52 52.5 0 1 522.21 340.83
  L 536.57 359.46
  A 0.69 0.68 72.3 0 0 537.06 359.72
  Q 539.23 359.86 539.82 360.16
  C 543.25 361.86 541.24 365.42 538.71 366.44
  A 1.19 1.17 -4.6 0 0 538.00 367.26
  L 530.80 397.34
  A 0.53 0.52 -67.2 0 0 531.03 397.91
  Q 531.96 398.48 532.14 399.14
  Q 533.18 403.13 529.41 403.64
  Q 526.80 404.00 526.09 401.01
  A 0.67 0.67 0.0 0 0 525.43 400.50
  Q 523.53 400.53 521.22 400.07
  Q 519.52 399.74 494.35 394.64
  A 0.96 0.95 -86.5 0 1 493.58 393.76
  L 493.59 393.46
  A 0.61 0.60 -82.7 0 1 494.31 392.89
  L 525.69 399.30
  A 0.07 0.04 -58.3 0 0 525.73 399.28
  Q 526.57 398.30 528.29 397.75
  A 1.17 1.16 -89.4 0 0 529.03 397.02
  Q 530.27 393.34 530.56 392.06
  Q 534.68 373.94 536.50 367.98
  Q 536.63 367.55 537.12 367.10
  Z"
/>
<path fill="#dc7e2d" d="
  M 329.56 390.34
  L 329.23 390.28
  A 1.00 0.91 -16.8 0 1 328.81 390.08
  Q 326.64 388.20 325.05 385.41
  Q 315.04 367.82 324.42 349.17
  C 325.86 346.31 331.16 337.31 334.62 343.55
  A 1.46 1.45 -41.9 0 1 334.53 345.12
  Q 332.30 348.18 329.79 352.77
  C 323.34 364.57 324.32 377.50 330.58 388.93
  A 0.96 0.96 0.0 0 1 329.56 390.34
  Z"
/>
<path fill="#338bbc" d="
  M 391.23 394.53
  Q 390.96 394.46 390.85 394.37
  Q 390.09 393.70 390.53 392.78
  C 391.55 390.62 393.57 388.26 394.51 386.12
  Q 400.69 372.14 396.21 357.81
  C 394.93 353.71 392.08 349.54 390.03 346.25
  Q 388.59 343.95 391.09 342.21
  C 393.26 340.71 395.51 343.56 396.64 345.13
  C 406.49 358.74 405.31 377.24 395.68 390.62
  Q 393.37 393.84 391.71 394.50
  A 0.74 0.70 39.9 0 1 391.23 394.53
  Z"
/>
<path fill="#dc7e2d" d="
  M 360.54 345.25
  Q 361.62 348.16 360.46 351.53
  Q 345.43 353.89 343.34 368.42
  Q 342.72 372.67 342.69 373.63
  A 1.74 1.71 -28.0 0 1 342.40 374.55
  Q 341.59 375.81 340.59 376.55
  A 0.68 0.67 -29.5 0 1 339.57 376.27
  Q 336.43 368.95 339.35 361.26
  Q 344.95 346.47 360.54 345.25
  Z"
/>
<path fill="#338bbc" d="
  M 360.46 351.53
  Q 361.62 348.16 360.54 345.25
  Q 374.56 345.20 381.32 355.45
  C 385.95 362.47 386.41 370.61 382.77 378.11
  A 0.80 0.79 41.3 0 1 381.39 378.20
  C 380.63 377.04 380.56 376.44 380.79 374.90
  Q 381.95 367.01 378.78 361.70
  Q 372.71 351.53 360.46 351.53
  Z"
/>
<path fill="#ffffff" d="
  M 619.87 520.45
  Q 614.38 520.59 608.25 519.03
  Q 598.99 513.26 589.58 507.00
  Q 579.61 500.36 573.45 494.83
  Q 565.85 488.01 557.94 480.97
  A 0.65 0.64 -38.3 0 0 557.19 480.89
  L 546.20 487.23
  A 0.76 0.76 0.0 0 1 545.37 487.19
  Q 540.46 483.64 532.76 479.52
  C 530.90 478.53 528.66 476.15 527.37 473.95
  Q 524.20 468.55 520.08 462.23
  C 516.45 456.65 510.27 457.07 505.76 452.13
  Q 501.99 448.00 489.10 434.55
  A 0.67 0.67 0.0 0 0 488.12 434.55
  Q 480.93 442.21 472.62 449.20
  Q 470.20 451.23 469.09 451.32
  C 466.45 451.53 463.76 449.77 461.23 452.04
  C 456.53 456.28 452.33 460.69 447.82 463.03
  A 0.81 0.80 -37.8 0 1 446.92 462.92
  L 434.38 451.89
  A 0.79 0.79 0.0 0 0 433.48 451.80
  L 423.15 457.51
  A 0.67 0.65 -38.1 0 1 422.40 457.43
  L 406.27 443.25
  A 8.56 8.50 7.4 0 1 404.26 440.66
  Q 400.80 433.85 395.67 422.87
  C 394.42 420.18 393.13 418.47 390.20 417.02
  Q 386.54 415.21 384.23 413.03
  A 5.17 5.03 -84.8 0 1 383.37 411.97
  Q 376.47 400.72 371.73 391.69
  C 368.76 386.03 365.02 380.18 362.55 374.48
  A 0.87 0.86 -39.5 0 0 361.04 374.34
  Q 354.88 383.44 345.20 396.70
  C 343.06 399.62 341.42 402.05 338.26 403.78
  C 333.97 406.13 330.41 406.82 327.81 411.53
  Q 319.92 425.77 313.57 436.56
  C 311.42 440.20 303.08 441.08 298.08 441.81
  Q 296.36 442.06 293.99 445.23
  C 287.63 453.74 285.57 457.03 280.51 462.50
  C 278.36 464.82 275.46 467.11 272.37 464.87
  Q 264.61 459.25 260.78 455.31
  Q 254.67 449.01 250.85 446.22
  Q 249.78 445.44 239.61 438.86
  A 0.69 0.68 37.6 0 0 238.73 438.97
  L 219.03 460.31
  A 5.29 5.24 13.0 0 1 216.60 461.81
  L 212.23 463.06
  A 1.80 1.72 -74.0 0 0 211.49 463.49
  Q 205.41 469.55 194.15 481.20
  C 192.55 482.86 190.05 484.88 188.41 486.11
  A 1.99 1.97 -47.2 0 1 186.18 486.21
  L 170.53 476.41
  A 1.07 1.06 -48.0 0 0 169.31 476.48
  Q 156.65 486.46 147.20 496.69
  Q 144.16 499.99 140.97 502.39
  C 132.09 509.08 121.74 514.69 114.13 519.39
  C 109.67 522.15 101.69 525.79 95.20 528.27
  Q 87.13 531.36 78.42 535.22
  A 0.27 0.25 -25.5 0 1 78.08 535.11
  L 78.07 535.09
  A 0.16 0.16 0.0 0 1 78.12 534.88
  C 86.52 529.19 96.18 523.89 103.59 519.08
  Q 119.57 508.69 133.01 500.76
  C 135.90 499.05 139.10 496.24 141.43 493.79
  Q 152.96 481.67 168.23 469.38
  A 0.93 0.93 0.0 0 1 169.17 469.24
  Q 175.42 471.78 185.82 478.55
  C 187.41 479.58 188.44 478.42 189.56 477.33
  Q 197.19 469.95 206.63 459.62
  C 209.67 456.30 214.37 456.84 217.21 453.71
  Q 228.74 440.98 238.14 431.70
  A 0.61 0.60 38.6 0 1 238.89 431.62
  L 255.85 442.22
  A 10.08 9.99 -6.6 0 1 257.39 443.43
  L 273.81 459.29
  A 0.93 0.92 -44.8 0 0 275.08 459.29
  C 279.43 455.21 283.64 449.03 291.12 439.12
  Q 291.82 438.20 293.65 436.87
  A 2.21 2.19 -65.3 0 1 294.79 436.44
  Q 300.87 435.89 306.85 433.68
  A 4.12 4.11 5.3 0 0 308.93 431.96
  Q 316.43 419.76 323.83 406.63
  C 326.31 402.23 330.65 400.96 335.74 398.36
  A 4.48 4.34 9.0 0 0 336.82 397.60
  C 340.06 394.58 343.08 389.75 346.46 384.72
  Q 353.21 374.69 361.53 363.73
  A 0.81 0.81 0.0 0 1 362.87 363.81
  C 371.72 378.69 379.53 393.84 386.92 406.34
  C 389.20 410.20 393.91 412.09 396.86 414.30
  Q 399.22 416.08 401.33 420.42
  Q 404.92 427.81 408.04 435.38
  A 5.85 5.75 -79.2 0 0 409.33 437.31
  L 422.06 449.89
  A 1.92 1.89 -27.9 0 0 423.76 450.40
  Q 425.67 450.02 427.70 448.70
  Q 430.06 447.17 434.84 444.55
  A 0.78 0.77 -36.9 0 1 435.76 444.68
  C 439.45 448.41 443.02 452.46 447.37 455.43
  A 1.06 1.05 -48.5 0 0 448.65 455.35
  L 460.54 445.07
  A 0.92 0.89 -63.0 0 1 461.18 444.85
  L 467.51 445.09
  A 3.09 3.06 -65.9 0 0 469.81 444.20
  L 488.10 425.90
  A 0.60 0.59 43.2 0 1 488.91 425.88
  C 495.45 431.74 501.30 438.72 510.32 448.12
  C 512.05 449.92 514.28 451.12 517.36 452.42
  Q 521.94 454.35 525.05 459.18
  Q 527.15 462.44 533.32 471.90
  Q 534.73 474.06 537.78 475.73
  Q 543.60 478.90 546.29 480.47
  A 0.96 0.94 -47.9 0 0 547.34 480.41
  Q 551.46 477.33 557.27 475.27
  A 2.91 2.90 53.3 0 1 559.93 475.66
  C 568.67 481.99 576.66 489.67 582.01 494.24
  Q 583.25 495.31 588.88 499.08
  Q 604.10 509.29 619.87 520.45
  Z"
/>
<path fill="#338bbc" d="
  M 488.49 388.58
  Q 487.91 387.54 487.73 386.50
  Q 486.20 377.95 483.98 370.85
  A 2.32 2.31 -10.5 0 1 486.05 367.85
  Q 487.55 367.76 488.34 370.49
  A 0.54 0.50 48.5 0 1 488.33 370.82
  L 487.34 373.80
  A 1.27 1.20 50.4 0 0 487.30 374.42
  L 489.74 388.40
  A 0.69 0.63 17.2 0 0 489.97 388.79
  Q 491.95 390.46 492.74 392.13
  A 1.61 1.56 43.1 0 1 492.80 393.36
  C 490.97 398.55 484.12 395.17 486.85 390.77
  C 487.26 390.11 487.83 389.92 488.33 389.49
  A 0.72 0.72 0.0 0 0 488.49 388.58
  Z
  M 489.14 393.35
  Q 489.41 393.54 489.80 393.29
  A 0.77 0.65 -52.6 0 0 489.74 391.98
  Q 489.37 391.90 489.03 392.45
  Q 488.67 393.01 489.14 393.35
  Z"
/>
<path fill="#dc7e2d" d="
  M 267.46 411.40
  C 267.08 413.38 265.52 415.12 263.43 413.79
  C 258.71 410.79 264.00 409.37 262.81 405.97
  Q 261.32 401.74 261.18 398.19
  A 2.16 2.13 15.6 0 0 260.20 396.47
  C 252.32 391.41 260.39 385.41 264.26 390.71
  A 2.86 2.85 44.4 0 1 264.30 394.01
  Q 263.66 394.95 263.33 395.78
  A 2.54 2.51 50.9 0 0 263.20 397.12
  Q 263.65 399.56 264.31 404.67
  Q 264.54 406.46 267.24 410.38
  A 1.38 1.35 -57.8 0 1 267.46 411.40
  Z"
/>
<path fill="#ffffff" d="
  M 379.97 494.71
  A 0.10 0.10 0.0 0 1 379.85 494.87
  L 358.86 483.21
  A 0.96 0.95 -47.8 0 0 357.85 483.26
  Q 355.94 484.60 355.65 486.73
  Q 354.91 492.21 355.27 499.87
  A 0.36 0.35 26.8 0 1 354.62 500.08
  Q 350.51 493.79 346.67 487.32
  Q 345.04 484.57 345.33 481.77
  Q 345.92 475.89 347.16 470.37
  A 0.37 0.37 0.0 0 0 346.51 470.07
  Q 338.85 480.16 334.38 492.11
  Q 333.76 493.77 331.86 495.87
  Q 326.96 501.31 318.00 511.15
  A 0.15 0.15 0.0 0 0 318.18 511.38
  L 337.07 501.14
  A 0.03 0.02 -58.3 0 0 337.09 501.13
  Q 338.54 500.43 340.72 502.07
  C 343.50 504.15 345.48 505.54 343.34 509.58
  C 341.04 513.90 337.87 518.26 333.82 521.84
  Q 329.76 525.42 324.07 531.07
  Q 322.48 532.65 321.26 534.29
  A 0.23 0.23 0.0 0 1 320.86 534.08
  L 325.15 521.20
  A 0.51 0.51 0.0 0 0 324.40 520.60
  Q 302.41 534.26 283.93 552.37
  A 0.16 0.15 82.9 0 1 283.69 552.18
  C 286.91 546.42 290.75 540.95 292.28 533.56
  Q 293.76 526.41 293.89 518.07
  A 4.65 4.62 -24.6 0 1 294.98 515.17
  L 301.84 507.00
  A 5.31 5.29 -12.1 0 0 302.56 505.89
  L 310.88 488.62
  A 0.24 0.24 0.0 0 0 310.48 488.37
  C 305.82 494.07 300.36 500.04 294.24 504.06
  Q 291.37 505.94 286.31 509.43
  A 3.48 3.46 -2.9 0 0 285.22 510.63
  L 279.76 520.46
  A 4.10 4.09 -83.2 0 1 277.29 522.41
  C 270.10 524.43 264.30 526.20 257.93 530.21
  Q 246.02 537.70 233.17 546.42
  A 15.61 15.50 -70.0 0 1 228.86 548.45
  C 209.69 554.11 194.19 560.08 172.93 568.12
  A 0.27 0.26 18.1 0 1 172.69 567.65
  Q 176.91 564.96 204.28 547.82
  Q 211.95 543.01 215.30 540.11
  C 221.28 534.94 227.83 527.52 232.37 523.08
  Q 243.59 512.10 246.16 509.93
  Q 248.15 508.24 252.73 506.00
  Q 259.96 502.48 265.74 499.93
  A 4.39 4.33 -84.1 0 0 267.55 498.44
  Q 272.20 491.72 288.90 468.33
  Q 291.23 465.06 292.30 463.39
  C 295.32 458.64 297.43 454.81 302.91 453.41
  Q 310.03 451.58 316.92 448.68
  A 2.59 2.58 2.8 0 0 318.17 447.55
  Q 323.41 438.06 329.27 427.03
  Q 333.06 419.92 339.45 415.04
  A 1.59 1.58 33.4 0 1 340.78 414.77
  Q 342.58 415.24 344.25 413.00
  Q 352.61 401.84 360.40 389.19
  A 0.17 0.17 0.0 0 1 360.72 389.28
  L 360.49 416.28
  A 5.88 5.88 0.0 0 0 361.38 419.46
  Q 363.91 423.49 365.03 427.42
  Q 367.25 435.19 368.95 442.81
  A 0.37 0.37 0.0 0 1 368.63 443.26
  Q 368.07 443.32 367.41 442.58
  Q 361.77 436.27 356.83 430.36
  A 0.54 0.54 0.0 0 0 355.98 430.38
  Q 350.18 438.17 344.03 445.72
  C 340.61 449.91 338.33 454.41 335.15 458.89
  A 0.17 0.17 0.0 0 0 335.39 459.12
  L 351.94 445.57
  A 0.90 0.90 0.0 0 1 353.36 445.97
  C 355.41 451.92 356.02 458.96 356.85 467.14
  Q 357.03 468.94 360.19 472.60
  C 363.35 476.26 364.99 477.72 368.04 481.43
  Q 373.92 488.56 379.97 494.71
  Z"
/>
<ellipse fill="#dc7e2d" cx="0.00" cy="0.00" transform="translate(185.38,405.83) rotate(-82.5)" rx="4.33" ry="3.81"/>
<path fill="#ffffff" d="
  M 374.99 422.00
  C 371.41 419.26 371.74 416.29 370.71 410.41
  A 0.40 0.40 0.0 0 1 371.49 410.21
  L 375.40 421.70
  A 0.27 0.27 0.0 0 1 374.99 422.00
  Z"
/>
<path fill="#ffffff" d="
  M 399.10 469.42
  A 0.25 0.25 0.0 0 1 398.68 469.67
  Q 394.07 464.68 388.45 460.29
  Q 386.04 458.41 385.35 454.21
  Q 384.57 449.48 383.55 440.28
  A 0.33 0.33 0.0 0 1 384.18 440.10
  Q 385.20 442.34 387.81 448.73
  C 389.50 452.87 392.28 456.13 394.21 459.10
  Q 397.52 464.22 399.10 469.42
  Z"
/>
<path fill="#ffffff" d="
  M 508.04 536.15
  A 0.28 0.28 0.0 0 1 507.54 536.39
  Q 507.37 536.16 494.04 520.94
  Q 489.95 516.27 488.34 509.67
  C 487.34 505.58 486.71 501.92 484.34 498.97
  A 2.78 2.65 85.0 0 0 483.58 498.30
  C 475.66 493.52 469.90 487.50 463.10 479.90
  Q 462.50 479.24 460.26 478.26
  A 0.70 0.56 -6.5 0 1 460.10 478.16
  L 453.18 472.34
  A 0.50 0.50 0.0 0 1 453.22 471.54
  Q 459.89 466.92 465.98 460.85
  A 0.76 0.76 0.0 0 1 467.13 460.94
  L 468.32 462.53
  A 1.08 1.07 -41.9 0 1 468.24 463.91
  Q 466.77 465.48 467.81 466.21
  A 0.66 0.65 -49.5 0 0 468.64 466.14
  L 488.12 446.66
  A 0.43 0.43 0.0 0 1 488.79 446.73
  Q 496.41 458.44 503.16 472.03
  A 0.50 0.50 0.0 0 1 502.36 472.61
  Q 495.64 465.98 490.79 458.73
  A 0.34 0.34 0.0 0 0 490.16 458.91
  L 489.83 470.80
  A 4.15 4.15 0.0 0 0 491.20 473.99
  Q 493.62 476.17 495.53 478.75
  Q 500.72 485.74 506.71 495.25
  A 0.25 0.25 0.0 0 1 506.36 495.60
  L 495.78 488.97
  A 0.24 0.24 0.0 0 0 495.42 489.20
  Q 496.28 497.44 495.74 506.10
  A 3.21 3.17 -55.7 0 0 496.03 507.68
  Q 499.81 515.87 503.36 524.17
  Q 507.32 533.41 508.04 536.15
  Z"
/>
<path fill="#dc7e2d" d="
  M 650.86 542.45
  Q 667.34 541.93 672.16 541.94
  C 680.47 541.96 688.78 541.27 697.44 541.39
  Q 702.92 541.47 707.56 541.36
  Q 755.20 540.27 800.29 540.01
  A 1.90 1.88 -68.1 0 0 801.66 539.42
  L 820.66 519.47
  A 1.02 1.01 21.5 0 1 821.40 519.15
  Q 1088.40 519.11 1276.75 519.15
  Q 1296.79 519.16 1309.27 504.79
  Q 1315.12 498.05 1318.24 488.52
  Q 1321.35 479.05 1322.32 470.25
  Q 1322.43 469.33 1322.22 468.80
  A 0.43 0.43 0.0 0 0 1321.52 468.64
  Q 1314.39 475.23 1304.72 477.23
  A 0.23 0.23 0.0 0 1 1304.55 476.81
  Q 1308.51 474.42 1310.33 473.12
  Q 1323.44 463.72 1325.96 447.89
  A 0.26 0.26 0.0 0 1 1326.47 447.88
  C 1328.26 457.42 1328.08 465.77 1327.59 476.97
  C 1326.71 496.64 1316.79 514.79 1298.33 523.01
  Q 1287.47 527.85 1274.19 527.78
  Q 1249.24 527.65 1132.75 527.70
  Q 1075.70 527.73 826.29 527.70
  A 3.97 3.94 21.3 0 0 823.39 528.96
  L 805.86 547.95
  A 3.02 3.00 -67.5 0 1 803.54 548.92
  L 650.84 542.95
  A 0.24 0.24 0.0 0 1 650.60 542.73
  L 650.60 542.72
  A 0.27 0.27 0.0 0 1 650.86 542.45
  Z"
/>
<path fill="#ffffff" d="
  M 127.46 542.46
  Q 135.98 535.92 145.67 528.68
  Q 151.30 524.47 154.91 520.05
  A 10.08 9.96 79.6 0 0 155.79 518.76
  C 158.64 513.74 161.77 509.36 164.18 503.72
  A 0.41 0.41 0.0 0 0 163.80 503.15
  Q 163.15 503.17 161.76 503.76
  Q 153.51 507.26 139.50 515.55
  A 0.08 0.08 0.0 0 1 139.41 515.42
  L 169.04 487.81
  A 0.55 0.54 -56.4 0 1 169.61 487.69
  Q 179.90 491.31 188.98 498.50
  A 1.38 1.38 0.0 0 0 191.06 498.04
  L 192.19 495.83
  A 2.33 2.13 83.0 0 1 192.56 495.31
  Q 202.78 484.52 211.01 476.51
  Q 214.18 473.43 216.25 472.05
  A 1.65 1.30 -65.7 0 1 216.56 471.89
  L 221.42 470.12
  A 2.07 2.02 9.2 0 0 222.29 469.51
  L 238.05 450.74
  A 0.36 0.35 -22.2 0 1 238.68 451.00
  Q 237.47 462.68 236.67 472.18
  C 236.41 475.19 228.83 480.32 226.42 482.12
  Q 224.02 483.91 224.47 488.02
  Q 224.82 491.23 225.41 497.30
  C 225.89 502.21 222.96 504.21 219.07 507.54
  Q 209.39 515.82 203.26 521.78
  A 0.15 0.15 0.0 0 1 203.01 521.62
  C 204.68 516.86 208.86 512.28 211.15 507.25
  Q 214.72 499.41 217.76 491.11
  A 0.22 0.22 0.0 0 0 217.39 490.88
  Q 214.64 493.84 211.28 496.03
  Q 198.15 504.62 196.87 505.53
  A 4.95 4.94 -67.9 0 1 195.03 506.31
  C 192.52 506.82 191.02 507.01 189.10 507.80
  Q 178.59 512.13 170.80 516.05
  C 167.19 517.86 163.88 520.00 160.47 523.16
  C 150.79 532.13 140.74 536.22 127.56 542.61
  A 0.09 0.09 0.0 0 1 127.46 542.46
  Z"
/>
<path fill="#ffffff" d="
  M 456.49 509.97
  L 442.38 491.07
  A 3.91 3.83 -4.5 0 0 441.03 489.94
  C 436.67 487.74 434.03 486.79 431.65 484.10
  Q 426.97 478.77 424.83 472.27
  A 0.70 0.69 -27.4 0 1 425.08 471.49
  L 432.78 465.74
  A 0.87 0.87 0.0 0 1 434.07 466.03
  Q 439.59 476.77 443.15 482.24
  C 449.09 491.37 453.58 501.84 456.76 509.82
  A 0.16 0.16 0.0 0 1 456.49 509.97
  Z"
/>
<path fill="#ffffff" d="
  M 518.97 478.91
  A 0.20 0.20 0.0 0 1 518.61 479.06
  Q 515.15 473.36 510.73 469.03
  A 0.44 0.44 0.0 0 1 510.88 468.31
  L 511.48 468.07
  A 1.06 1.05 54.6 0 1 512.57 468.26
  Q 517.47 472.61 518.97 478.91
  Z"
/>
<path fill="#ffffff" d="
  M 390.13 474.28
  L 397.75 481.90
  A 3.34 3.33 -75.0 0 1 398.59 483.36
  L 403.06 499.98
  A 0.22 0.20 -15.8 0 1 402.91 500.23
  L 402.65 500.30
  A 0.52 0.52 0.0 0 1 402.03 499.97
  Q 398.54 490.44 392.90 481.16
  C 391.78 479.32 390.55 476.54 389.66 474.61
  A 0.29 0.29 0.0 0 1 390.13 474.28
  Z"
/>
<path fill="#dc7e2d" d="
  M 758.22 486.61
  A 0.88 0.88 0.0 0 1 757.33 487.57
  L 754.16 487.54
  A 1.18 1.18 0.0 0 1 753.00 486.46
  Q 752.88 485.03 751.81 483.93
  C 748.69 480.67 744.33 483.50 744.03 487.31
  Q 743.42 494.93 744.27 499.32
  Q 745.23 504.30 750.97 503.10
  A 2.07 2.06 84.7 0 0 752.62 501.11
  L 752.65 498.34
  A 1.14 1.14 0.0 0 0 751.47 497.19
  L 749.06 497.28
  A 0.84 0.83 -0.4 0 1 748.19 496.44
  L 748.24 492.82
  A 0.59 0.59 0.0 0 1 748.84 492.25
  L 757.57 492.36
  A 0.77 0.77 0.0 0 1 758.33 493.10
  Q 758.55 500.82 758.10 503.97
  Q 757.88 505.56 755.61 506.81
  C 751.35 509.15 745.09 509.53 741.41 506.00
  C 738.21 502.91 737.84 498.62 737.81 493.96
  Q 737.78 488.80 737.99 487.53
  C 739.08 480.69 743.49 476.49 750.62 477.54
  Q 757.46 478.54 758.22 486.61
  Z"
/>
<path fill="#dc7e2d" d="
  M 1286.51 486.53
  A 0.89 0.88 -2.6 0 1 1285.62 487.50
  L 1282.45 487.48
  A 1.19 1.18 -2.1 0 1 1281.28 486.40
  Q 1281.15 484.97 1280.08 483.87
  C 1276.94 480.62 1272.58 483.47 1272.29 487.29
  Q 1271.71 494.93 1272.58 499.33
  Q 1273.56 504.31 1279.31 503.09
  A 2.07 2.06 84.4 0 0 1280.95 501.09
  L 1280.97 498.31
  A 1.14 1.14 0.0 0 0 1279.79 497.16
  L 1277.37 497.26
  A 0.84 0.83 -0.7 0 1 1276.50 496.42
  L 1276.53 492.80
  A 0.59 0.59 0.0 0 1 1277.13 492.22
  L 1285.88 492.30
  A 0.77 0.77 0.0 0 1 1286.65 493.04
  Q 1286.90 500.78 1286.46 503.93
  Q 1286.24 505.53 1283.97 506.79
  C 1279.71 509.15 1273.44 509.56 1269.74 506.03
  C 1266.52 502.95 1266.13 498.65 1266.08 493.98
  Q 1266.03 488.81 1266.24 487.53
  C 1267.31 480.67 1271.71 476.45 1278.86 477.47
  Q 1285.72 478.45 1286.51 486.53
  Z"
/>
<path fill="#dc7e2d" d="
  M 643.53 477.64
  C 652.73 477.67 654.37 485.74 654.35 493.10
  C 654.32 500.45 652.62 508.51 643.42 508.47
  C 634.21 508.44 632.57 500.37 632.60 493.02
  C 632.63 485.66 634.33 477.61 643.53 477.64
  Z
  M 638.91 493.18
  Q 638.90 494.54 638.91 495.89
  Q 638.98 503.83 643.48 503.84
  Q 647.97 503.84 648.07 495.91
  Q 648.09 494.55 648.09 493.20
  Q 648.09 491.84 648.08 490.48
  Q 648.01 482.55 643.52 482.54
  Q 639.02 482.53 638.92 490.46
  Q 638.91 491.82 638.91 493.18
  Z"
/>
<path fill="#dc7e2d" d="
  M 926.33 498.66
  L 930.27 498.66
  A 0.85 0.85 0.0 0 1 931.04 499.15
  L 932.48 502.23
  A 0.52 0.47 -87.1 0 0 932.66 502.45
  C 937.95 506.16 942.61 498.85 936.04 496.25
  C 930.71 494.14 925.33 491.16 926.39 484.39
  C 927.48 477.43 936.11 475.85 941.13 478.87
  Q 944.46 480.88 944.99 486.09
  A 0.71 0.70 -1.8 0 1 944.26 486.86
  L 940.04 486.69
  A 1.24 1.23 -4.3 0 1 938.86 485.68
  C 937.67 479.48 929.62 482.81 932.31 487.44
  Q 933.32 489.17 935.22 489.92
  C 939.87 491.76 944.45 493.18 944.92 498.50
  Q 945.43 504.39 941.56 507.04
  C 938.71 509.00 933.38 509.24 930.30 507.47
  Q 926.15 505.08 925.59 499.47
  A 0.74 0.74 0.0 0 1 926.33 498.66
  Z"
/>
<path fill="#dc7e2d" d="
  M 1148.2009 498.5871
  A 9.90 9.90 0.0 0 1 1138.2664 508.4525
  L 1136.7864 508.4473
  A 9.90 9.90 0.0 0 1 1126.9210 498.5128
  L 1126.9591 487.5929
  A 9.90 9.90 0.0 0 1 1136.8936 477.7275
  L 1138.3736 477.7327
  A 9.90 9.90 0.0 0 1 1148.2390 487.6672
  L 1148.2009 498.5871
  Z
  M 1142.2531 487.2468
  A 4.40 4.40 0.0 0 0 1137.9072 482.7933
  L 1137.4872 482.7882
  A 4.40 4.40 0.0 0 0 1133.0338 487.1341
  L 1132.8869 499.1532
  A 4.40 4.40 0.0 0 0 1137.2328 503.6067
  L 1137.6528 503.6118
  A 4.40 4.40 0.0 0 0 1142.1062 499.2659
  L 1142.2531 487.2468
  Z"
/>
<path fill="#dc7e2d" d="
  M 665.01 477.96
  L 680.38 477.92
  A 0.83 0.83 0.0 0 1 681.22 478.76
  L 681.19 482.00
  A 0.89 0.88 -89.5 0 1 680.30 482.88
  L 671.13 482.91
  A 0.73 0.73 0.0 0 0 670.40 483.64
  L 670.40 490.14
  A 0.69 0.68 -0.2 0 0 671.10 490.82
  L 679.29 490.73
  A 0.69 0.69 0.0 0 1 679.99 491.41
  L 680.02 495.22
  A 0.76 0.76 0.0 0 1 679.24 495.98
  L 670.95 495.78
  A 0.51 0.51 0.0 0 0 670.43 496.30
  L 670.53 507.50
  A 0.80 0.80 0.0 0 1 669.75 508.30
  L 665.19 508.37
  A 0.75 0.75 0.0 0 1 664.43 507.63
  L 664.39 478.58
  A 0.62 0.62 0.0 0 1 665.01 477.96
  Z"
/>
<path fill="#dc7e2d" d="
  M 706.71 482.85
  L 697.24 482.83
  A 0.67 0.67 0.0 0 0 696.57 483.50
  L 696.55 490.06
  A 0.67 0.67 0.0 0 0 697.22 490.73
  L 705.49 490.75
  A 0.67 0.67 0.0 0 1 706.16 491.42
  L 706.15 495.19
  A 0.67 0.67 0.0 0 1 705.48 495.86
  L 697.27 495.84
  A 0.67 0.67 0.0 0 0 696.60 496.51
  L 696.58 507.64
  A 0.67 0.67 0.0 0 1 695.91 508.31
  L 691.18 508.30
  A 0.67 0.67 0.0 0 1 690.51 507.63
  L 690.56 478.52
  A 0.67 0.67 0.0 0 1 691.23 477.85
  L 706.72 477.88
  A 0.67 0.67 0.0 0 1 707.39 478.55
  L 707.38 482.18
  A 0.67 0.67 0.0 0 1 706.71 482.85
  Z"
/>
<rect fill="#dc7e2d" x="-3.03" y="-15.22" transform="translate(801.48,493.16) rotate(-0.2)" width="6.06" height="30.44" rx="0.59"/>
<path fill="#dc7e2d" d="
  M 866.94 489.91
  L 867.60 507.42
  A 0.78 0.78 0.0 0 1 866.85 508.23
  L 862.26 508.40
  A 0.73 0.73 0.0 0 1 861.50 507.67
  L 861.55 478.80
  A 0.72 0.71 89.2 0 1 862.24 478.08
  L 868.59 477.84
  A 0.73 0.72 81.2 0 1 869.33 478.39
  L 874.68 498.27
  A 0.52 0.52 0.0 0 0 875.69 498.26
  L 880.37 478.69
  A 1.13 1.12 -83.1 0 1 881.46 477.83
  L 887.90 477.84
  A 0.63 0.63 0.0 0 1 888.53 478.47
  L 888.48 507.50
  A 1.02 1.01 -0.0 0 1 887.46 508.51
  L 883.60 508.51
  A 1.29 1.29 0.0 0 1 882.32 507.17
  L 883.05 488.47
  A 0.13 0.13 0.0 0 0 882.94 488.33
  L 882.69 488.28
  A 0.17 0.16 -77.8 0 0 882.51 488.40
  L 877.67 507.49
  A 0.91 0.89 89.5 0 1 877.05 508.13
  Q 874.89 508.73 872.95 508.08
  A 0.82 0.81 2.2 0 1 872.41 507.51
  L 867.64 489.80
  A 0.36 0.36 0.0 0 0 866.94 489.91
  Z"
/>
<path fill="#dc7e2d" d="
  M 1015.19 492.29
  Q 1016.53 495.47 1017.17 496.69
  A 0.32 0.32 0.0 0 0 1017.78 496.54
  L 1017.43 478.43
  A 0.55 0.55 0.0 0 1 1017.97 477.87
  L 1023.04 477.78
  A 0.54 0.53 -0.5 0 1 1023.59 478.31
  L 1023.54 507.77
  A 0.59 0.59 0.0 0 1 1022.95 508.36
  L 1018.05 508.35
  A 1.28 1.26 77.5 0 1 1016.90 507.61
  Q 1013.68 500.59 1010.90 493.99
  Q 1009.57 490.80 1008.92 489.58
  A 0.32 0.32 0.0 0 0 1008.31 489.73
  L 1008.66 507.84
  A 0.55 0.55 0.0 0 1 1008.12 508.40
  L 1003.05 508.49
  A 0.54 0.53 -0.5 0 1 1002.50 507.96
  L 1002.55 478.50
  A 0.59 0.59 0.0 0 1 1003.14 477.91
  L 1008.04 477.92
  A 1.28 1.26 77.5 0 1 1009.19 478.66
  Q 1012.41 485.68 1015.19 492.29
  Z"
/>
<path fill="#dc7e2d" d="
  M 1069.63 477.88
  Q 1078.30 477.88 1078.93 477.85
  A 0.87 0.87 0.0 0 1 1079.84 478.70
  L 1079.93 482.28
  A 0.80 0.79 89.3 0 1 1079.14 483.10
  L 1073.47 483.10
  A 0.64 0.64 0.0 0 0 1072.83 483.74
  L 1072.83 508.01
  A 0.53 0.52 86.7 0 1 1072.37 508.53
  Q 1071.71 508.62 1069.67 508.62
  Q 1067.62 508.62 1066.97 508.54
  A 0.53 0.52 -86.8 0 1 1066.50 508.02
  L 1066.44 483.75
  A 0.64 0.64 0.0 0 0 1065.79 483.11
  L 1060.12 483.13
  A 0.80 0.79 -89.5 0 1 1059.33 482.31
  L 1059.41 478.73
  A 0.87 0.87 0.0 0 1 1060.32 477.88
  Q 1060.95 477.90 1069.63 477.88
  Z"
/>
<path fill="#dc7e2d" d="
  M 1208.28 507.61
  A 0.47 0.47 0.0 0 1 1207.85 508.28
  L 1203.17 508.28
  A 1.68 1.67 -12.4 0 1 1201.65 507.31
  L 1197.06 497.49
  A 0.94 0.94 0.0 0 0 1195.55 497.22
  C 1193.42 499.30 1193.98 504.57 1194.10 507.63
  A 0.63 0.63 0.0 0 1 1193.47 508.28
  L 1188.47 508.28
  A 0.58 0.57 -90.0 0 1 1187.90 507.70
  L 1187.90 478.45
  A 0.62 0.61 -90.0 0 1 1188.51 477.83
  L 1193.50 477.83
  A 0.49 0.49 0.0 0 1 1193.99 478.32
  L 1193.99 489.32
  A 0.53 0.53 0.0 0 0 1194.99 489.58
  L 1201.22 478.37
  A 1.08 1.08 0.0 0 1 1202.16 477.82
  L 1208.18 477.82
  A 0.39 0.38 -74.0 0 1 1208.50 478.41
  L 1200.68 490.90
  A 0.42 0.41 49.0 0 0 1200.66 491.30
  L 1208.28 507.61
  Z"
/>
<rect fill="#dc7e2d" x="-2.95" y="-15.19" transform="translate(1220.55,493.01) rotate(0.1)" width="5.90" height="30.38" rx="0.56"/>
<path fill="#dc7e2d" d="
  M 1249.76 496.96
  L 1249.76 478.17
  A 0.13 0.13 0.0 0 1 1249.88 478.04
  L 1255.17 477.84
  A 0.30 0.29 -1.0 0 1 1255.48 478.13
  L 1255.48 507.64
  A 0.60 0.60 0.0 0 1 1254.88 508.24
  L 1250.64 508.24
  A 1.51 1.51 0.0 0 1 1249.28 507.38
  L 1241.02 489.69
  A 0.16 0.16 0.0 0 0 1240.71 489.76
  L 1240.71 507.76
  A 0.62 0.62 0.0 0 1 1240.09 508.38
  L 1235.37 508.38
  A 0.65 0.64 0.0 0 1 1234.72 507.74
  L 1234.72 478.58
  A 0.68 0.67 -0.0 0 1 1235.40 477.91
  L 1240.06 477.91
  A 0.99 0.99 0.0 0 1 1240.95 478.47
  L 1249.60 497.00
  A 0.09 0.08 -58.5 0 0 1249.76 496.96
  Z"
/>
<path fill="#dc7e2d" d="
  M 788.59 508.31
  L 782.74 508.29
  A 0.45 0.45 0.0 0 1 782.32 508.00
  L 778.55 497.84
  A 0.37 0.33 -74.9 0 0 778.48 497.70
  Q 777.69 496.72 775.47 496.96
  A 0.73 0.71 -2.9 0 0 774.81 497.66
  L 774.78 507.70
  A 0.59 0.59 0.0 0 1 774.19 508.29
  L 769.30 508.27
  A 0.60 0.60 0.0 0 1 768.70 507.67
  L 768.81 478.41
  A 0.41 0.41 0.0 0 1 769.19 478.01
  Q 773.52 477.71 780.09 478.12
  Q 786.95 478.55 787.86 485.75
  Q 788.45 490.42 786.19 493.64
  C 785.73 494.30 784.88 494.87 784.38 495.53
  A 1.07 1.05 -37.5 0 0 784.24 496.56
  L 788.77 508.04
  A 0.20 0.19 79.1 0 1 788.59 508.31
  Z
  M 774.78 483.52
  L 774.80 491.06
  A 0.93 0.93 0.0 0 0 775.74 491.99
  L 777.98 491.98
  A 4.02 3.85 89.8 0 0 781.81 487.95
  L 781.81 486.59
  A 4.02 3.85 89.8 0 0 777.94 482.58
  L 775.70 482.59
  A 0.93 0.93 0.0 0 0 774.78 483.52
  Z"
/>
<path fill="#dc7e2d" d="
  M 815.51 478.46
  A 0.54 0.54 0.0 0 1 816.05 477.92
  L 824.37 477.94
  A 12.08 11.14 -89.9 0 1 835.49 490.04
  L 835.47 496.42
  A 12.08 11.14 -89.9 0 1 824.31 508.48
  L 815.99 508.46
  A 0.54 0.54 0.0 0 1 815.45 507.92
  L 815.51 478.46
  Z
  M 821.60 483.54
  L 821.64 502.46
  A 0.79 0.79 0.0 0 0 822.43 503.25
  L 823.85 503.24
  A 5.80 5.41 89.9 0 0 829.25 497.43
  L 829.23 488.53
  A 5.80 5.41 89.9 0 0 823.81 482.74
  L 822.39 482.75
  A 0.79 0.79 0.0 0 0 821.60 483.54
  Z"
/>
<path fill="#dc7e2d" d="
  M 899.81 478.03
  L 915.86 477.91
  A 0.90 0.90 0.0 0 1 916.78 478.82
  L 916.75 481.86
  A 1.01 1.01 0.0 0 1 915.73 482.86
  L 906.32 482.75
  A 1.01 1.00 -0.0 0 0 905.30 483.76
  L 905.35 489.17
  A 1.01 1.01 0.0 0 0 906.35 490.17
  L 914.20 490.29
  A 0.88 0.88 0.0 0 1 915.07 491.19
  L 915.02 494.36
  A 0.94 0.93 0.6 0 1 914.08 495.27
  L 906.46 495.22
  A 0.98 0.98 0.0 0 0 905.46 496.20
  L 905.45 501.99
  A 1.17 1.16 90.0 0 0 906.61 503.16
  L 915.67 503.18
  A 0.99 0.98 -0.0 0 1 916.65 504.16
  L 916.70 507.62
  A 0.80 0.80 0.0 0 1 915.90 508.43
  L 899.86 508.33
  A 0.47 0.47 0.0 0 1 899.39 507.86
  L 899.40 478.44
  A 0.41 0.41 0.0 0 1 899.81 478.03
  Z"
/>
<path fill="#dc7e2d" d="
  M 965.23 490.26
  Q 968.29 490.27 969.04 490.20
  A 0.65 0.64 -2.5 0 0 969.63 489.56
  L 969.65 478.41
  A 0.40 0.39 -0.0 0 1 970.05 478.02
  L 975.15 478.02
  A 0.56 0.55 0.5 0 1 975.70 478.57
  L 975.65 507.69
  A 0.68 0.68 0.0 0 1 974.97 508.37
  L 970.19 508.36
  A 0.63 0.63 0.0 0 1 969.56 507.73
  L 969.58 495.56
  A 0.36 0.35 0.3 0 0 969.22 495.21
  Q 967.04 495.21 965.22 495.21
  Q 963.41 495.21 961.23 495.20
  A 0.36 0.35 -0.2 0 0 960.87 495.55
  L 960.87 507.72
  A 0.63 0.63 0.0 0 1 960.24 508.35
  L 955.46 508.35
  A 0.68 0.68 0.0 0 1 954.78 507.67
  L 954.78 478.55
  A 0.56 0.55 -0.4 0 1 955.33 478.00
  L 960.43 478.01
  A 0.40 0.39 0.1 0 1 960.83 478.40
  L 960.83 489.55
  A 0.65 0.64 2.6 0 0 961.42 490.20
  Q 962.17 490.26 965.23 490.26
  Z"
/>
<path fill="#dc7e2d" d="
  M 1051.01 482.86
  L 1041.24 482.84
  A 0.81 0.81 0.0 0 0 1040.43 483.65
  L 1040.42 489.43
  A 0.81 0.81 0.0 0 0 1041.23 490.24
  L 1049.30 490.26
  A 0.81 0.81 0.0 0 1 1050.11 491.07
  L 1050.10 494.47
  A 0.81 0.81 0.0 0 1 1049.29 495.28
  L 1041.37 495.26
  A 0.81 0.81 0.0 0 0 1040.56 496.07
  L 1040.54 502.36
  A 0.81 0.81 0.0 0 0 1041.35 503.17
  L 1050.94 503.19
  A 0.81 0.81 0.0 0 1 1051.75 504.00
  L 1051.74 507.60
  A 0.81 0.81 0.0 0 1 1050.93 508.41
  L 1035.27 508.38
  A 0.81 0.81 0.0 0 1 1034.46 507.57
  L 1034.51 478.81
  A 0.81 0.81 0.0 0 1 1035.32 478.00
  L 1051.02 478.03
  A 0.81 0.81 0.0 0 1 1051.83 478.84
  L 1051.82 482.05
  A 0.81 0.81 0.0 0 1 1051.01 482.86
  Z"
/>
<path fill="#dc7e2d" d="
  M 1103.05 478.17
  Q 1104.51 478.16 1105.09 478.17
  A 0.92 0.92 0.0 0 1 1105.99 478.94
  L 1108.88 495.46
  A 0.20 0.20 0.0 0 0 1109.28 495.46
  L 1112.37 478.84
  A 1.02 1.01 5.5 0 1 1113.37 478.02
  L 1117.59 478.03
  A 0.60 0.59 5.5 0 1 1118.18 478.74
  L 1112.78 507.80
  A 0.66 0.66 0.0 0 1 1112.13 508.34
  L 1107.38 508.33
  A 0.95 0.94 84.2 0 1 1106.46 507.57
  Q 1103.18 491.11 1103.09 491.11
  Q 1103.01 491.11 1099.84 507.59
  A 0.95 0.94 -84.6 0 1 1098.92 508.36
  L 1094.17 508.40
  A 0.66 0.66 0.0 0 1 1093.52 507.86
  L 1087.93 478.84
  A 0.60 0.59 -5.9 0 1 1088.52 478.12
  L 1092.73 478.09
  A 1.02 1.01 -5.9 0 1 1093.74 478.90
  L 1096.94 495.50
  A 0.20 0.20 0.0 0 0 1097.34 495.50
  L 1100.12 478.96
  A 0.92 0.92 0.0 0 1 1101.01 478.19
  Q 1101.60 478.17 1103.05 478.17
  Z"
/>
<path fill="#dc7e2d" d="
  M 1178.34 508.36
  L 1172.48 508.36
  A 0.45 0.45 0.0 0 1 1172.06 508.07
  L 1168.24 497.90
  A 0.37 0.33 -75.1 0 0 1168.17 497.76
  Q 1167.38 496.79 1165.15 497.03
  A 0.73 0.71 -3.1 0 0 1164.50 497.74
  L 1164.50 507.80
  A 0.59 0.59 0.0 0 1 1163.91 508.39
  L 1159.01 508.39
  A 0.60 0.60 0.0 0 1 1158.41 507.79
  L 1158.41 478.47
  A 0.41 0.41 0.0 0 1 1158.79 478.06
  Q 1163.13 477.75 1169.72 478.14
  Q 1176.59 478.54 1177.53 485.75
  Q 1178.14 490.43 1175.89 493.67
  C 1175.43 494.33 1174.58 494.91 1174.08 495.57
  A 1.07 1.05 -37.7 0 0 1173.94 496.60
  L 1178.52 508.09
  A 0.20 0.19 78.9 0 1 1178.34 508.36
  Z
  M 1164.56 483.63
  L 1164.58 491.09
  A 0.95 0.95 0.0 0 0 1165.54 492.04
  L 1167.94 492.03
  A 4.14 3.87 89.8 0 0 1171.79 487.88
  L 1171.79 486.80
  A 4.14 3.87 89.8 0 0 1167.90 482.67
  L 1165.50 482.68
  A 0.95 0.95 0.0 0 0 1164.56 483.63
  Z"
/>
<path fill="#dc7e2d" d="
  M 613.93 480.48
  L 604.02 491.22
  A 0.46 0.46 0.0 0 1 603.68 491.37
  L 590.81 491.25
  A 0.46 0.46 0.0 0 1 590.53 491.15
  L 576.98 480.53
  A 0.46 0.46 0.0 0 1 577.26 479.71
  L 613.59 479.71
  A 0.46 0.46 0.0 0 1 613.93 480.48
  Z"
/>
<path fill="#ffffff" d="
  M 580.58 511.91
  A 0.02 0.01 -4.7 0 1 580.56 511.93
  Q 563.58 504.75 563.15 504.70
  A 0.04 0.04 0.0 0 0 563.14 504.78
  Q 563.65 504.94 562.07 504.05
  A 0.61 0.61 0.0 0 0 561.24 504.88
  L 570.74 522.05
  A 0.18 0.18 0.0 0 1 570.49 522.29
  Q 570.28 522.16 570.00 522.07
  Q 569.72 521.98 569.61 521.88
  Q 560.44 512.53 549.31 505.61
  Q 547.94 504.75 546.76 501.72
  Q 545.69 498.99 547.84 497.61
  Q 548.63 497.11 556.59 491.68
  A 0.87 0.87 0.0 0 1 557.64 491.74
  L 580.58 511.91
  Z"
/>
<rect fill="#dc7e2d" x="-5.40" y="-2.51" transform="translate(721.57,495.32) rotate(1.0)" width="10.80" height="5.02" rx="1.11"/>
<path fill="#ffffff" d="
  M 468.24 499.15
  L 475.26 503.84
  A 3.95 3.79 87.6 0 1 476.21 504.75
  Q 481.69 512.14 485.86 520.57
  A 0.28 0.28 0.0 0 1 485.40 520.88
  Q 480.06 514.61 473.76 509.01
  Q 471.32 506.84 467.65 499.67
  A 0.41 0.41 0.0 0 1 468.24 499.15
  Z"
/>
<path fill="#ffffff" d="
  M 508.93 504.37
  Q 514.67 507.40 523.20 510.63
  Q 525.65 511.56 530.92 516.30
  Q 540.11 524.57 548.64 533.95
  A 0.44 0.44 0.0 0 1 548.06 534.60
  L 527.58 520.15
  A 9.21 9.13 71.2 0 0 525.07 518.90
  C 520.77 517.54 518.18 517.11 515.64 513.60
  Q 512.45 509.18 508.66 504.71
  A 0.22 0.22 0.0 0 1 508.93 504.37
  Z"
/>
<path fill="#ffffff" d="
  M 333.93 576.03
  A 0.13 0.12 -19.1 0 1 333.77 575.96
  L 333.68 575.72
  A 0.01 0.01 0.0 0 1 333.69 575.71
  Q 355.49 565.56 372.59 554.08
  Q 383.23 546.93 388.04 543.68
  Q 395.26 538.81 401.68 535.75
  Q 405.26 534.04 415.29 527.79
  C 418.63 525.72 421.08 518.44 422.16 515.36
  A 0.21 0.21 0.0 0 0 421.89 515.09
  L 391.79 526.38
  A 0.37 0.37 0.0 0 1 391.43 525.74
  C 398.95 519.83 406.77 515.80 417.64 509.53
  C 419.54 508.43 421.41 506.56 423.35 505.72
  A 2.02 2.02 0.0 0 1 424.66 505.63
  C 438.32 509.27 446.87 519.63 455.50 530.29
  A 2.73 2.70 -20.4 0 0 457.71 531.29
  L 461.64 531.14
  A 0.45 0.45 0.0 0 0 461.86 530.31
  Q 459.80 528.99 459.09 527.79
  A 0.42 0.42 0.0 0 1 459.60 527.19
  C 464.28 528.96 468.62 528.74 473.55 531.19
  Q 475.20 532.01 493.74 543.15
  C 509.41 552.56 523.17 559.84 539.43 567.29
  A 0.09 0.09 0.0 0 1 539.38 567.47
  Q 532.86 566.70 511.96 564.34
  Q 507.45 563.84 506.54 563.49
  Q 496.81 559.78 484.02 553.50
  C 478.12 550.60 471.92 549.78 466.09 548.19
  Q 463.95 547.60 460.79 545.20
  C 452.93 539.24 448.99 536.01 444.59 528.83
  A 0.99 0.99 0.0 0 0 442.83 528.98
  L 440.99 533.59
  A 5.91 5.88 82.5 0 1 439.07 536.11
  C 434.44 539.62 429.92 542.79 424.20 545.68
  C 415.54 550.06 411.45 551.88 404.60 555.89
  Q 397.67 559.95 389.96 563.06
  A 0.40 0.40 0.0 0 1 389.47 562.47
  L 396.09 551.89
  A 0.16 0.15 8.9 0 0 395.92 551.66
  Q 391.55 552.76 387.41 554.69
  Q 384.26 556.16 368.96 564.22
  Q 365.84 565.87 358.48 568.22
  Q 346.25 572.13 333.93 576.03
  Z"
/>
<path fill="#dc7e2d" d="
  M 619.87 520.45
  Q 621.62 520.48 623.80 520.63
  Q 626.14 520.79 627.71 520.79
  Q 646.72 520.77 665.73 520.52
  C 711.06 519.95 756.62 519.94 801.25 519.77
  Q 802.12 519.76 802.36 519.90
  A 0.66 0.65 -54.2 0 1 802.52 520.91
  Q 800.26 523.41 797.27 526.54
  Q 795.54 528.35 793.75 528.30
  Q 707.62 526.12 692.25 525.71
  C 679.85 525.38 670.45 524.77 660.24 524.59
  Q 642.35 524.28 623.97 523.54
  Q 619.70 522.79 615.72 523.67
  L 577.35 521.55
  A 0.03 0.03 0.0 0 1 577.32 521.52
  L 577.34 521.24
  A 0.30 0.29 -89.0 0 1 577.63 520.95
  L 609.22 520.95
  A 0.38 0.38 0.0 0 0 609.49 520.30
  L 608.25 519.03
  Q 614.38 520.59 619.87 520.45
  Z"
/>
<path fill="#ffffff" d="
  M 623.97 523.54
  L 641.53 533.68
  A 0.41 0.40 -58.9 0 1 641.67 534.25
  L 641.53 534.48
  A 0.15 0.14 -61.2 0 1 641.35 534.54
  Q 628.25 529.82 615.72 523.67
  Q 619.70 522.79 623.97 523.54
  Z"
/>
<path fill="#ffffff" d="
  M 257.51 548.28
  C 261.68 545.50 266.57 543.03 271.49 540.64
  A 0.28 0.28 0.0 0 1 271.83 541.06
  C 269.21 544.33 265.37 549.26 260.47 552.54
  C 256.30 555.32 251.42 557.79 246.49 560.18
  A 0.28 0.28 0.0 0 1 246.15 559.76
  C 248.77 556.50 252.61 551.56 257.51 548.28
  Z"
/>
<path fill="#ffffff" d="
  M 447.93 545.20
  A 0.41 0.40 -26.8 0 1 448.64 545.43
  L 449.32 553.34
  A 10.67 10.51 -57.3 0 0 449.85 555.87
  L 452.11 562.52
  A 0.43 0.43 0.0 0 1 451.35 562.92
  L 445.52 555.12
  A 2.00 1.98 25.7 0 1 445.14 554.05
  Q 444.91 548.65 447.93 545.20
  Z"
/>
</g>
</svg>
